PsfTest-Bold.ufo
<glyph name="ExclamationMrk" format="2">
  <advance width="780.0"/>
  <unicode hex="0021"/>
  <outline>
    <contour>
      <point x="530.0" y="500.0" type="line"/>
      <point x="536.0" y="790.0"/>
      <point x="531.0" y="1076.0"/>
      <point x="570.0" y="1510.0" type="curve"/>
      <point x="235.0" y="1510.0" type="line"/>
      <point x="273.0" y="1076.0"/>
      <point x="268.0" y="790.0"/>
      <point x="275.0" y="500.0" type="curve"/>
    </contour>
    <contour>
      <point x="230.0" y="150.0" type="curve" smooth="yes"/>
      <point x="230.0" y="46.0"/>
      <point x="304.0" y="-25.0"/>
      <point x="405.0" y="-25.0" type="curve" smooth="yes"/>
      <point x="507.0" y="-25.0"/>
      <point x="580.0" y="46.0"/>
      <point x="580.0" y="150.0" type="curve" smooth="yes"/>
      <point x="580.0" y="252.0"/>
      <point x="507.0" y="325.0"/>
      <point x="405.0" y="325.0" type="curve" smooth="yes"/>
      <point x="304.0" y="325.0"/>
      <point x="230.0" y="252.0"/>
    </contour>
  </outline>
</glyph>
<glyph name="QuotMrk" format="2">
  <advance width="1085.0"/>
  <unicode hex="0022"/>
  <outline>
    <contour>
      <point x="450.0" y="1045.0" type="line"/>
      <point x="455.0" y="1186.0"/>
      <point x="456.0" y="1339.0"/>
      <point x="485.0" y="1585.0" type="curve"/>
      <point x="240.0" y="1585.0" type="line"/>
      <point x="271.0" y="1339.0"/>
      <point x="271.0" y="1186.0"/>
      <point x="275.0" y="1045.0" type="curve"/>
    </contour>
    <contour>
      <point x="810.0" y="1045.0" type="line"/>
      <point x="815.0" y="1186.0"/>
      <point x="816.0" y="1339.0"/>
      <point x="845.0" y="1585.0" type="curve"/>
      <point x="600.0" y="1585.0" type="line"/>
      <point x="631.0" y="1339.0"/>
      <point x="631.0" y="1186.0"/>
      <point x="635.0" y="1045.0" type="curve"/>
    </contour>
  </outline>
</glyph>
<glyph name="NumSgn" format="2">
  <advance width="1200.0"/>
  <unicode hex="0023"/>
  <outline>
    <contour>
      <point x="412.0" y="1360.0" type="line"/>
      <point x="52.0" y="100.0" type="line"/>
      <point x="272.0" y="100.0" type="line"/>
      <point x="632.0" y="1360.0" type="line"/>
    </contour>
    <contour>
      <point x="10.0" y="425.0" type="line"/>
      <point x="1101.0" y="425.0" type="line"/>
      <point x="1101.0" y="635.0" type="line"/>
      <point x="10.0" y="635.0" type="line"/>
    </contour>
    <contour>
      <point x="69.0" y="850.0" type="line"/>
      <point x="1160.0" y="850.0" type="line"/>
      <point x="1160.0" y="1060.0" type="line"/>
      <point x="69.0" y="1060.0" type="line"/>
    </contour>
    <contour>
      <point x="887.0" y="1360.0" type="line"/>
      <point x="527.0" y="100.0" type="line"/>
      <point x="747.0" y="100.0" type="line"/>
      <point x="1107.0" y="1360.0" type="line"/>
    </contour>
  </outline>
</glyph>
<glyph name="DollarSgn" format="2">
  <advance width="1200.0"/>
  <unicode hex="0024"/>
  <outline>
    <contour>
      <point x="1006.0" y="1316.0" type="line"/>
      <point x="886.0" y="1374.0"/>
      <point x="764.0" y="1389.0"/>
      <point x="623.0" y="1389.0" type="curve" smooth="yes"/>
      <point x="317.0" y="1389.0"/>
      <point x="150.0" y="1203.0"/>
      <point x="150.0" y="1017.0" type="curve" smooth="yes"/>
      <point x="150.0" y="830.0"/>
      <point x="275.0" y="730.0"/>
      <point x="540.0" y="623.0" type="curve" smooth="yes"/>
      <point x="802.0" y="517.0"/>
      <point x="851.0" y="472.0"/>
      <point x="851.0" y="386.0" type="curve" smooth="yes"/>
      <point x="851.0" y="267.0"/>
      <point x="744.0" y="211.0"/>
      <point x="586.0" y="211.0" type="curve" smooth="yes"/>
      <point x="440.0" y="211.0"/>
      <point x="297.0" y="281.0"/>
      <point x="195.0" y="383.0" type="curve"/>
      <point x="123.0" y="124.0" type="line"/>
      <point x="216.0" y="49.0"/>
      <point x="388.0" y="0.0"/>
      <point x="586.0" y="0.0" type="curve" smooth="yes"/>
      <point x="847.0" y="0.0"/>
      <point x="1086.0" y="147.0"/>
      <point x="1086.0" y="414.0" type="curve" smooth="yes"/>
      <point x="1086.0" y="633.0"/>
      <point x="927.0" y="723.0"/>
      <point x="679.0" y="826.0" type="curve" smooth="yes"/>
      <point x="431.0" y="929.0"/>
      <point x="385.0" y="969.0"/>
      <point x="385.0" y="1040.0" type="curve" smooth="yes"/>
      <point x="385.0" y="1132.0"/>
      <point x="466.0" y="1188.0"/>
      <point x="613.0" y="1188.0" type="curve" smooth="yes"/>
      <point x="741.0" y="1188.0"/>
      <point x="876.0" y="1154.0"/>
      <point x="949.0" y="1077.0" type="curve"/>
    </contour>
    <contour>
      <point x="548.0" y="1600.0" type="line"/>
      <point x="548.0" y="788.0" type="line"/>
      <point x="518.0" y="726.0" type="line"/>
      <point x="518.0" y="-220.0" type="line"/>
      <point x="688.0" y="-220.0" type="line"/>
      <point x="688.0" y="668.0" type="line"/>
      <point x="718.0" y="734.0" type="line"/>
      <point x="718.0" y="1600.0" type="line"/>
    </contour>
  </outline>
</glyph>
<glyph name="PercentSgn" format="2">
  <advance width="1565.0"/>
  <unicode hex="0025"/>
  <outline>
    <contour>
      <point x="1073.0" y="1480.0" type="line"/>
      <point x="291.0" y="-25.0" type="line"/>
      <point x="499.0" y="-25.0" type="line"/>
      <point x="1279.0" y="1480.0" type="line"/>
    </contour>
    <contour>
      <point x="511.0" y="1076.0" type="curve" smooth="yes"/>
      <point x="511.0" y="892.0"/>
      <point x="470.0" y="815.0"/>
      <point x="394.0" y="815.0" type="curve" smooth="yes"/>
      <point x="315.0" y="815.0"/>
      <point x="279.0" y="891.0"/>
      <point x="279.0" y="1091.0" type="curve" smooth="yes"/>
      <point x="279.0" y="1275.0"/>
      <point x="317.0" y="1350.0"/>
      <point x="394.0" y="1350.0" type="curve" smooth="yes"/>
      <point x="475.0" y="1350.0"/>
      <point x="511.0" y="1276.0"/>
    </contour>
    <contour>
      <point x="721.0" y="1089.0" type="curve" smooth="yes"/>
      <point x="721.0" y="1362.0"/>
      <point x="584.0" y="1480.0"/>
      <point x="399.0" y="1480.0" type="curve" smooth="yes"/>
      <point x="215.0" y="1480.0"/>
      <point x="69.0" y="1360.0"/>
      <point x="69.0" y="1078.0" type="curve" smooth="yes"/>
      <point x="69.0" y="796.0"/>
      <point x="205.0" y="685.0"/>
      <point x="390.0" y="685.0" type="curve" smooth="yes"/>
      <point x="575.0" y="685.0"/>
      <point x="721.0" y="794.0"/>
    </contour>
    <contour>
      <point x="1286.0" y="366.0" type="curve" smooth="yes"/>
      <point x="1286.0" y="182.0"/>
      <point x="1245.0" y="105.0"/>
      <point x="1169.0" y="105.0" type="curve" smooth="yes"/>
      <point x="1090.0" y="105.0"/>
      <point x="1054.0" y="181.0"/>
      <point x="1054.0" y="381.0" type="curve" smooth="yes"/>
      <point x="1054.0" y="565.0"/>
      <point x="1092.0" y="640.0"/>
      <point x="1169.0" y="640.0" type="curve" smooth="yes"/>
      <point x="1250.0" y="640.0"/>
      <point x="1286.0" y="566.0"/>
    </contour>
    <contour>
      <point x="1496.0" y="379.0" type="curve" smooth="yes"/>
      <point x="1496.0" y="652.0"/>
      <point x="1359.0" y="770.0"/>
      <point x="1174.0" y="770.0" type="curve" smooth="yes"/>
      <point x="990.0" y="770.0"/>
      <point x="844.0" y="650.0"/>
      <point x="844.0" y="368.0" type="curve" smooth="yes"/>
      <point x="844.0" y="86.0"/>
      <point x="980.0" y="-25.0"/>
      <point x="1165.0" y="-25.0" type="curve" smooth="yes"/>
      <point x="1350.0" y="-25.0"/>
      <point x="1496.0" y="84.0"/>
    </contour>
  </outline>
</glyph>
<glyph name="Ampersand" format="2">
  <advance width="1355.0"/>
  <unicode hex="0026"/>
  <outline>
    <contour>
      <point x="1060.0" y="600.0" type="line"/>
      <point x="996.0" y="433.0"/>
      <point x="715.0" y="190.0"/>
      <point x="540.0" y="190.0" type="curve" smooth="yes"/>
      <point x="425.0" y="190.0"/>
      <point x="335.0" y="257.0"/>
      <point x="335.0" y="370.0" type="curve" smooth="yes"/>
      <point x="335.0" y="480.0"/>
      <point x="411.0" y="547.0"/>
      <point x="585.0" y="700.0" type="curve" smooth="yes"/>
      <point x="766.0" y="859.0"/>
      <point x="925.0" y="1048.0"/>
      <point x="925.0" y="1190.0" type="curve" smooth="yes"/>
      <point x="925.0" y="1372.0"/>
      <point x="777.0" y="1485.0"/>
      <point x="575.0" y="1485.0" type="curve" smooth="yes"/>
      <point x="366.0" y="1485.0"/>
      <point x="190.0" y="1372.0"/>
      <point x="190.0" y="1160.0" type="curve" smooth="yes"/>
      <point x="190.0" y="1000.0"/>
      <point x="407.0" y="785.0"/>
      <point x="590.0" y="540.0" type="curve" smooth="yes"/>
      <point x="859.0" y="179.0"/>
      <point x="1038.0" y="-25.0"/>
      <point x="1090.0" y="-25.0" type="curve" smooth="yes"/>
      <point x="1125.0" y="-25.0"/>
      <point x="1253.0" y="58.0"/>
      <point x="1290.0" y="90.0" type="curve"/>
      <point x="1195.0" y="130.0"/>
      <point x="1060.0" y="305.0"/>
      <point x="785.0" y="680.0" type="curve" smooth="yes"/>
      <point x="619.0" y="906.0"/>
      <point x="420.0" y="1085.0"/>
      <point x="420.0" y="1170.0" type="curve" smooth="yes"/>
      <point x="420.0" y="1241.0"/>
      <point x="483.0" y="1310.0"/>
      <point x="560.0" y="1310.0" type="curve" smooth="yes"/>
      <point x="640.0" y="1310.0"/>
      <point x="695.0" y="1254.0"/>
      <point x="695.0" y="1175.0" type="curve" smooth="yes"/>
      <point x="695.0" y="1106.0"/>
      <point x="628.0" y="1001.0"/>
      <point x="455.0" y="840.0" type="curve" smooth="yes"/>
      <point x="251.0" y="651.0"/>
      <point x="90.0" y="527.0"/>
      <point x="90.0" y="344.0" type="curve" smooth="yes"/>
      <point x="90.0" y="121.0"/>
      <point x="242.0" y="-25.0"/>
      <point x="525.0" y="-25.0" type="curve" smooth="yes"/>
      <point x="808.0" y="-25.0"/>
      <point x="1117.0" y="264.0"/>
      <point x="1195.0" y="425.0" type="curve"/>
    </contour>
  </outline>
</glyph>
<glyph name="Apos" format="2">
  <advance width="625.0"/>
  <unicode hex="0027"/>
  <outline>
    <contour>
      <point x="400.0" y="1045.0" type="line"/>
      <point x="405.0" y="1186.0"/>
      <point x="406.0" y="1339.0"/>
      <point x="435.0" y="1585.0" type="curve"/>
      <point x="190.0" y="1585.0" type="line"/>
      <point x="221.0" y="1339.0"/>
      <point x="221.0" y="1186.0"/>
      <point x="225.0" y="1045.0" type="curve"/>
    </contour>
  </outline>
</glyph>
<glyph name="LftParen" format="2">
  <advance width="860.0"/>
  <unicode hex="0028"/>
  <outline>
    <contour>
      <point x="555.0" y="1640.0" type="line"/>
      <point x="290.0" y="1444.0"/>
      <point x="115.0" y="1062.0"/>
      <point x="115.0" y="625.0" type="curve" smooth="yes"/>
      <point x="115.0" y="218.0"/>
      <point x="260.0" y="-125.0"/>
      <point x="535.0" y="-410.0" type="curve"/>
      <point x="686.0" y="-240.0" type="line"/>
      <point x="462.0" y="11.0"/>
      <point x="376.0" y="335.0"/>
      <point x="376.0" y="635.0" type="curve" smooth="yes"/>
      <point x="376.0" y="938.0"/>
      <point x="466.0" y="1261.0"/>
      <point x="676.0" y="1455.0" type="curve"/>
    </contour>
  </outline>
</glyph>
<glyph name="RtParen" format="2">
  <advance width="860.0"/>
  <unicode hex="0029"/>
  <outline>
    <contour>
      <point x="185.0" y="1455.0" type="line"/>
      <point x="395.0" y="1261.0"/>
      <point x="485.0" y="938.0"/>
      <point x="485.0" y="635.0" type="curve" smooth="yes"/>
      <point x="485.0" y="335.0"/>
      <point x="399.0" y="11.0"/>
      <point x="175.0" y="-240.0" type="curve"/>
      <point x="326.0" y="-410.0" type="line"/>
      <point x="601.0" y="-125.0"/>
      <point x="746.0" y="218.0"/>
      <point x="746.0" y="625.0" type="curve" smooth="yes"/>
      <point x="746.0" y="1062.0"/>
      <point x="571.0" y="1444.0"/>
      <point x="306.0" y="1640.0" type="curve"/>
    </contour>
  </outline>
</glyph>
<glyph name="Asterisk" format="2">
  <advance width="1040.0"/>
  <unicode hex="002A"/>
  <outline>
    <contour>
      <point x="827.0" y="1493.0" type="line"/>
      <point x="747.0" y="1426.0"/>
      <point x="679.0" y="1367.0"/>
      <point x="594.0" y="1308.0" type="curve"/>
      <point x="599.0" y="1405.0"/>
      <point x="609.0" y="1486.0"/>
      <point x="624.0" y="1600.0" type="curve"/>
      <point x="425.0" y="1600.0" type="line"/>
      <point x="444.0" y="1497.0"/>
      <point x="460.0" y="1412.0"/>
      <point x="468.0" y="1308.0" type="curve"/>
      <point x="383.0" y="1360.0"/>
      <point x="312.0" y="1408.0"/>
      <point x="228.0" y="1476.0" type="curve"/>
      <point x="126.0" y="1306.0" type="line"/>
      <point x="231.0" y="1271.0"/>
      <point x="331.0" y="1234.0"/>
      <point x="412.0" y="1196.0" type="curve"/>
      <point x="328.0" y="1153.0"/>
      <point x="243.0" y="1120.0"/>
      <point x="136.0" y="1077.0" type="curve"/>
      <point x="237.0" y="897.0" type="line"/>
      <point x="316.0" y="968.0"/>
      <point x="382.0" y="1026.0"/>
      <point x="466.0" y="1087.0" type="curve"/>
      <point x="459.0" y="983.0"/>
      <point x="449.0" y="896.0"/>
      <point x="431.0" y="793.0" type="curve"/>
      <point x="632.0" y="793.0" type="line"/>
      <point x="610.0" y="906.0"/>
      <point x="602.0" y="987.0"/>
      <point x="593.0" y="1084.0" type="curve"/>
      <point x="682.0" y="1027.0"/>
      <point x="747.0" y="981.0"/>
      <point x="830.0" y="914.0" type="curve"/>
      <point x="936.0" y="1089.0" type="line"/>
      <point x="827.0" y="1127.0"/>
      <point x="743.0" y="1155.0"/>
      <point x="651.0" y="1196.0" type="curve"/>
      <point x="738.0" y="1241.0"/>
      <point x="820.0" y="1277.0"/>
      <point x="924.0" y="1321.0" type="curve"/>
    </contour>
  </outline>
</glyph>
<glyph name="Comma" format="2">
  <advance width="665.0"/>
  <unicode hex="002C"/>
  <outline>
    <contour>
      <point x="185.0" y="50.0" type="line"/>
      <point x="345.0" y="50.0" type="line"/>
      <point x="345.0" y="-34.0"/>
      <point x="290.0" y="-153.0"/>
      <point x="185.0" y="-265.0" type="curve"/>
      <point x="330.0" y="-335.0" type="line"/>
      <point x="454.0" y="-228.0"/>
      <point x="560.0" y="-49.0"/>
      <point x="560.0" y="130.0" type="curve" smooth="yes"/>
      <point x="560.0" y="254.0"/>
      <point x="489.0" y="340.0"/>
      <point x="375.0" y="340.0" type="curve" smooth="yes"/>
      <point x="262.0" y="340.0"/>
      <point x="185.0" y="255.0"/>
      <point x="185.0" y="180.0" type="curve" smooth="yes"/>
    </contour>
  </outline>
</glyph>
<glyph name="HyphenMinus" format="2">
  <advance width="895.0"/>
  <unicode hex="002D"/>
  <anchor x="450.0" y="1100.0" name="U"/>
  <outline>
    <contour>
      <point x="80.0" y="525.0" type="line"/>
      <point x="815.0" y="525.0" type="line"/>
      <point x="815.0" y="735.0" type="line"/>
      <point x="80.0" y="735.0" type="line"/>
    </contour>
  </outline>
</glyph>
<glyph name="FullStop" format="2">
  <advance width="710.0"/>
  <unicode hex="002E"/>
  <outline>
    <contour>
      <point x="200.0" y="150.0" type="curve" smooth="yes"/>
      <point x="200.0" y="46.0"/>
      <point x="274.0" y="-25.0"/>
      <point x="375.0" y="-25.0" type="curve" smooth="yes"/>
      <point x="477.0" y="-25.0"/>
      <point x="550.0" y="46.0"/>
      <point x="550.0" y="150.0" type="curve" smooth="yes"/>
      <point x="550.0" y="252.0"/>
      <point x="477.0" y="325.0"/>
      <point x="375.0" y="325.0" type="curve" smooth="yes"/>
      <point x="274.0" y="325.0"/>
      <point x="200.0" y="252.0"/>
    </contour>
  </outline>
</glyph>
<glyph name="DigitZero" format="2">
  <advance width="1200.0"/>
  <unicode hex="0030"/>
  <anchor x="605.0" y="-100.0" name="L"/>
  <anchor x="605.0" y="1530.0" name="U"/>
  <outline>
    <contour>
      <point x="850.0" y="715.0" type="curve" smooth="yes"/>
      <point x="850.0" y="368.0"/>
      <point x="762.0" y="205.0"/>
      <point x="600.0" y="205.0" type="curve" smooth="yes"/>
      <point x="432.0" y="205.0"/>
      <point x="350.0" y="375.0"/>
      <point x="350.0" y="745.0" type="curve" smooth="yes"/>
      <point x="350.0" y="1093.0"/>
      <point x="437.0" y="1255.0"/>
      <point x="600.0" y="1255.0" type="curve" smooth="yes"/>
      <point x="772.0" y="1255.0"/>
      <point x="850.0" y="1086.0"/>
    </contour>
    <contour>
      <point x="1135.0" y="740.0" type="curve" smooth="yes"/>
      <point x="1135.0" y="1286.0"/>
      <point x="950.0" y="1485.0"/>
      <point x="610.0" y="1485.0" type="curve" smooth="yes"/>
      <point x="291.0" y="1485.0"/>
      <point x="65.0" y="1283.0"/>
      <point x="65.0" y="720.0" type="curve" smooth="yes"/>
      <point x="65.0" y="165.0"/>
      <point x="271.0" y="-25.0"/>
      <point x="590.0" y="-25.0" type="curve" smooth="yes"/>
      <point x="911.0" y="-25.0"/>
      <point x="1135.0" y="161.0"/>
    </contour>
  </outline>
</glyph>
<glyph name="DigitOne" format="2">
  <advance width="1200.0"/>
  <unicode hex="0031"/>
  <anchor x="600.0" y="-100.0" name="L"/>
  <anchor x="600.0" y="1530.0" name="U"/>
  <outline>
    <contour>
      <point x="1075.0" y="0.0" type="line"/>
      <point x="1075.0" y="235.0" type="line"/>
      <point x="767.0" y="235.0" type="line"/>
      <point x="767.0" y="1460.0" type="line"/>
      <point x="492.0" y="1460.0" type="line"/>
      <point x="177.0" y="1278.0" type="line"/>
      <point x="212.0" y="1018.0" type="line"/>
      <point x="492.0" y="1170.0" type="line"/>
      <point x="492.0" y="235.0" type="line"/>
      <point x="185.0" y="235.0" type="line"/>
      <point x="185.0" y="0.0" type="line"/>
    </contour>
  </outline>
</glyph>
<glyph name="DigitTwo" format="2">
  <advance width="1200.0"/>
  <unicode hex="0032"/>
  <anchor x="600.0" y="-100.0" name="L"/>
  <anchor x="560.0" y="1530.0" name="U"/>
  <outline>
    <contour>
      <point x="1090.0" y="260.0" type="line"/>
      <point x="1010.0" y="246.0"/>
      <point x="942.0" y="245.0"/>
      <point x="745.0" y="245.0" type="curve" smooth="yes"/>
      <point x="480.0" y="245.0" type="line"/>
      <point x="699.0" y="422.0"/>
      <point x="1046.0" y="739.0"/>
      <point x="1046.0" y="1065.0" type="curve" smooth="yes"/>
      <point x="1046.0" y="1323.0"/>
      <point x="850.0" y="1485.0"/>
      <point x="560.0" y="1485.0" type="curve" smooth="yes"/>
      <point x="391.0" y="1485.0"/>
      <point x="196.0" y="1402.0"/>
      <point x="105.0" y="1290.0" type="curve"/>
      <point x="170.0" y="1050.0" type="line"/>
      <point x="259.0" y="1158.0"/>
      <point x="412.0" y="1235.0"/>
      <point x="535.0" y="1235.0" type="curve" smooth="yes"/>
      <point x="688.0" y="1235.0"/>
      <point x="758.0" y="1133.0"/>
      <point x="758.0" y="1015.0" type="curve" smooth="yes"/>
      <point x="758.0" y="758.0"/>
      <point x="381.0" y="415.0"/>
      <point x="110.0" y="220.0" type="curve"/>
      <point x="110.0" y="0.0" type="line"/>
      <point x="1090.0" y="0.0" type="line"/>
    </contour>
  </outline>
</glyph>
<glyph name="DigitThree" format="2">
  <advance width="1200.0"/>
  <unicode hex="0033"/>
  <anchor x="600.0" y="-100.0" name="L"/>
  <anchor x="600.0" y="1530.0" name="U"/>
  <outline>
    <contour>
      <point x="390.0" y="885.0" type="line"/>
      <point x="390.0" y="645.0" type="line"/>
      <point x="480.0" y="645.0" type="line" smooth="yes"/>
      <point x="706.0" y="645.0"/>
      <point x="835.0" y="548.0"/>
      <point x="835.0" y="425.0" type="curve" smooth="yes"/>
      <point x="835.0" y="291.0"/>
      <point x="708.0" y="210.0"/>
      <point x="565.0" y="210.0" type="curve" smooth="yes"/>
      <point x="405.0" y="210.0"/>
      <point x="244.0" y="282.0"/>
      <point x="135.0" y="405.0" type="curve"/>
      <point x="100.0" y="130.0" type="line"/>
      <point x="205.0" y="32.0"/>
      <point x="368.0" y="-25.0"/>
      <point x="545.0" y="-25.0" type="curve" smooth="yes"/>
      <point x="874.0" y="-25.0"/>
      <point x="1120.0" y="170.0"/>
      <point x="1120.0" y="405.0" type="curve" smooth="yes"/>
      <point x="1120.0" y="672.0"/>
      <point x="892.0" y="756.0"/>
      <point x="750.0" y="780.0" type="curve"/>
      <point x="892.0" y="809.0"/>
      <point x="1070.0" y="957.0"/>
      <point x="1070.0" y="1140.0" type="curve" smooth="yes"/>
      <point x="1070.0" y="1354.0"/>
      <point x="868.0" y="1485.0"/>
      <point x="580.0" y="1485.0" type="curve" smooth="yes"/>
      <point x="413.0" y="1485.0"/>
      <point x="240.0" y="1416.0"/>
      <point x="160.0" y="1325.0" type="curve"/>
      <point x="195.0" y="1095.0" type="line"/>
      <point x="308.0" y="1211.0"/>
      <point x="436.0" y="1250.0"/>
      <point x="590.0" y="1250.0" type="curve" smooth="yes"/>
      <point x="689.0" y="1250.0"/>
      <point x="791.0" y="1193.0"/>
      <point x="791.0" y="1102.0" type="curve" smooth="yes"/>
      <point x="791.0" y="994.0"/>
      <point x="662.0" y="885.0"/>
      <point x="480.0" y="885.0" type="curve" smooth="yes"/>
    </contour>
  </outline>
</glyph>
<glyph name="DigitFour" format="2">
  <advance width="1200.0"/>
  <unicode hex="0034"/>
  <anchor x="607.0" y="-100.0" name="L"/>
  <anchor x="607.0" y="1530.0" name="U"/>
  <outline>
    <contour>
      <point x="1155.0" y="345.0" type="line"/>
      <point x="1155.0" y="570.0" type="line"/>
      <point x="995.0" y="570.0" type="line"/>
      <point x="995.0" y="1460.0" type="line"/>
      <point x="695.0" y="1460.0" type="line"/>
      <point x="60.0" y="570.0" type="line"/>
      <point x="60.0" y="345.0" type="line"/>
      <point x="730.0" y="345.0" type="line"/>
      <point x="730.0" y="0.0" type="line"/>
      <point x="995.0" y="0.0" type="line"/>
      <point x="995.0" y="345.0" type="line"/>
    </contour>
    <contour>
      <point x="730.0" y="1145.0" type="line"/>
      <point x="730.0" y="570.0" type="line"/>
      <point x="305.0" y="570.0" type="line"/>
    </contour>
  </outline>
</glyph>
<glyph name="DigitFive" format="2">
  <advance width="1200.0"/>
  <unicode hex="0035"/>
  <anchor x="600.0" y="-100.0" name="L"/>
  <anchor x="600.0" y="1530.0" name="U"/>
  <outline>
    <contour>
      <point x="175.0" y="645.0" type="line"/>
      <point x="299.0" y="693.0"/>
      <point x="404.0" y="710.0"/>
      <point x="510.0" y="710.0" type="curve" smooth="yes"/>
      <point x="670.0" y="710.0"/>
      <point x="810.0" y="632.0"/>
      <point x="810.0" y="470.0" type="curve" smooth="yes"/>
      <point x="810.0" y="318.0"/>
      <point x="690.0" y="215.0"/>
      <point x="530.0" y="215.0" type="curve" smooth="yes"/>
      <point x="390.0" y="215.0"/>
      <point x="274.0" y="252.0"/>
      <point x="140.0" y="360.0" type="curve"/>
      <point x="100.0" y="80.0" type="line"/>
      <point x="225.0" y="2.0"/>
      <point x="365.0" y="-25.0"/>
      <point x="520.0" y="-25.0" type="curve" smooth="yes"/>
      <point x="833.0" y="-25.0"/>
      <point x="1090.0" y="163.0"/>
      <point x="1090.0" y="475.0" type="curve" smooth="yes"/>
      <point x="1090.0" y="752.0"/>
      <point x="882.0" y="930.0"/>
      <point x="605.0" y="930.0" type="curve" smooth="yes"/>
      <point x="543.0" y="930.0"/>
      <point x="468.0" y="911.0"/>
      <point x="435.0" y="895.0" type="curve"/>
      <point x="435.0" y="1215.0" type="line"/>
      <point x="765.0" y="1215.0" type="line" smooth="yes"/>
      <point x="849.0" y="1215.0"/>
      <point x="955.0" y="1211.0"/>
      <point x="1030.0" y="1195.0" type="curve"/>
      <point x="1030.0" y="1460.0" type="line"/>
      <point x="175.0" y="1460.0" type="line"/>
    </contour>
  </outline>
</glyph>
<glyph name="DigitSix" format="2">
  <advance width="1200.0"/>
  <unicode hex="0036"/>
  <anchor x="610.0" y="-100.0" name="L"/>
  <anchor x="610.0" y="1530.0" name="U"/>
  <outline>
    <contour>
      <point x="1073.0" y="1395.0" type="line"/>
      <point x="969.0" y="1465.0"/>
      <point x="873.0" y="1485.0"/>
      <point x="735.0" y="1485.0" type="curve" smooth="yes"/>
      <point x="260.0" y="1485.0"/>
      <point x="90.0" y="1069.0"/>
      <point x="90.0" y="680.0" type="curve" smooth="yes"/>
      <point x="90.0" y="223.0"/>
      <point x="297.0" y="-25.0"/>
      <point x="652.0" y="-25.0" type="curve" smooth="yes"/>
      <point x="955.0" y="-25.0"/>
      <point x="1155.0" y="179.0"/>
      <point x="1155.0" y="470.0" type="curve" smooth="yes"/>
      <point x="1155.0" y="729.0"/>
      <point x="963.0" y="925.0"/>
      <point x="675.0" y="925.0" type="curve" smooth="yes"/>
      <point x="484.0" y="925.0"/>
      <point x="338.0" y="810.0"/>
      <point x="225.0" y="655.0" type="curve"/>
      <point x="290.0" y="540.0" type="line"/>
      <point x="372.0" y="643.0"/>
      <point x="500.0" y="710.0"/>
      <point x="655.0" y="710.0" type="curve" smooth="yes"/>
      <point x="814.0" y="710.0"/>
      <point x="900.0" y="601.0"/>
      <point x="900.0" y="455.0" type="curve" smooth="yes"/>
      <point x="900.0" y="329.0"/>
      <point x="803.0" y="210.0"/>
      <point x="656.0" y="210.0" type="curve" smooth="yes"/>
      <point x="474.0" y="210.0"/>
      <point x="355.0" y="386.0"/>
      <point x="355.0" y="645.0" type="curve" smooth="yes"/>
      <point x="355.0" y="1132.0"/>
      <point x="528.0" y="1250.0"/>
      <point x="725.0" y="1250.0" type="curve" smooth="yes"/>
      <point x="821.0" y="1250.0"/>
      <point x="923.0" y="1226.0"/>
      <point x="1009.0" y="1140.0" type="curve"/>
    </contour>
  </outline>
</glyph>
<glyph name="DigitSeven" format="2">
  <advance width="1200.0"/>
  <unicode hex="0037"/>
  <anchor x="600.0" y="-100.0" name="L"/>
  <anchor x="600.0" y="1530.0" name="U"/>
  <outline>
    <contour>
      <point x="520.0" y="0.0" type="line"/>
      <point x="649.0" y="459.0"/>
      <point x="834.0" y="855.0"/>
      <point x="1130.0" y="1260.0" type="curve"/>
      <point x="1130.0" y="1460.0" type="line"/>
      <point x="100.0" y="1460.0" type="line"/>
      <point x="100.0" y="1195.0" type="line"/>
      <point x="176.0" y="1211.0"/>
      <point x="292.0" y="1215.0"/>
      <point x="480.0" y="1215.0" type="curve" smooth="yes"/>
      <point x="800.0" y="1215.0" type="line"/>
      <point x="542.0" y="842.0"/>
      <point x="409.0" y="566.0"/>
      <point x="235.0" y="0.0" type="curve"/>
    </contour>
  </outline>
</glyph>
<glyph name="DigitEight" format="2">
  <advance width="1200.0"/>
  <unicode hex="0038"/>
  <anchor x="600.0" y="-100.0" name="L"/>
  <anchor x="600.0" y="1530.0" name="U"/>
  <outline>
    <contour>
      <point x="600.0" y="-25.0" type="curve" smooth="yes"/>
      <point x="877.0" y="-25.0"/>
      <point x="1130.0" y="144.0"/>
      <point x="1130.0" y="415.0" type="curve" smooth="yes"/>
      <point x="1130.0" y="641.0"/>
      <point x="985.0" y="739.0"/>
      <point x="875.0" y="795.0" type="curve"/>
      <point x="953.0" y="841.0"/>
      <point x="1060.0" y="923.0"/>
      <point x="1060.0" y="1105.0" type="curve" smooth="yes"/>
      <point x="1060.0" y="1350.0"/>
      <point x="860.0" y="1485.0"/>
      <point x="610.0" y="1485.0" type="curve" smooth="yes"/>
      <point x="361.0" y="1485.0"/>
      <point x="140.0" y="1350.0"/>
      <point x="140.0" y="1105.0" type="curve" smooth="yes"/>
      <point x="140.0" y="923.0"/>
      <point x="252.0" y="838.0"/>
      <point x="330.0" y="795.0" type="curve"/>
      <point x="201.0" y="725.0"/>
      <point x="70.0" y="631.0"/>
      <point x="70.0" y="405.0" type="curve" smooth="yes"/>
      <point x="70.0" y="134.0"/>
      <point x="324.0" y="-25.0"/>
    </contour>
    <contour>
      <point x="810.0" y="1100.0" type="curve" smooth="yes"/>
      <point x="810.0" y="974.0"/>
      <point x="733.0" y="895.0"/>
      <point x="600.0" y="895.0" type="curve" smooth="yes"/>
      <point x="467.0" y="895.0"/>
      <point x="390.0" y="974.0"/>
      <point x="390.0" y="1100.0" type="curve" smooth="yes"/>
      <point x="390.0" y="1217.0"/>
      <point x="477.0" y="1290.0"/>
      <point x="600.0" y="1290.0" type="curve" smooth="yes"/>
      <point x="743.0" y="1290.0"/>
      <point x="810.0" y="1207.0"/>
    </contour>
    <contour>
      <point x="865.0" y="435.0" type="curve" smooth="yes"/>
      <point x="865.0" y="300.0"/>
      <point x="768.0" y="185.0"/>
      <point x="600.0" y="185.0" type="curve" smooth="yes"/>
      <point x="440.0" y="185.0"/>
      <point x="335.0" y="300.0"/>
      <point x="335.0" y="435.0" type="curve" smooth="yes"/>
      <point x="335.0" y="582.0"/>
      <point x="450.0" y="680.0"/>
      <point x="600.0" y="680.0" type="curve" smooth="yes"/>
      <point x="748.0" y="680.0"/>
      <point x="865.0" y="582.0"/>
    </contour>
  </outline>
</glyph>
<glyph name="DigitNine" format="2">
  <advance width="1200.0"/>
  <unicode hex="0039"/>
  <anchor x="600.0" y="-100.0" name="L"/>
  <anchor x="600.0" y="1530.0" name="U"/>
  <outline>
    <contour>
      <point x="154.0" y="65.0" type="line"/>
      <point x="248.0" y="5.0"/>
      <point x="364.0" y="-25.0"/>
      <point x="492.0" y="-25.0" type="curve" smooth="yes"/>
      <point x="967.0" y="-25.0"/>
      <point x="1135.0" y="411.0"/>
      <point x="1135.0" y="780.0" type="curve" smooth="yes"/>
      <point x="1135.0" y="1150.0"/>
      <point x="977.0" y="1485.0"/>
      <point x="589.0" y="1485.0" type="curve" smooth="yes"/>
      <point x="310.0" y="1485.0"/>
      <point x="70.0" y="1300.0"/>
      <point x="70.0" y="1002.0" type="curve" smooth="yes"/>
      <point x="70.0" y="763.0"/>
      <point x="272.0" y="576.0"/>
      <point x="550.0" y="576.0" type="curve" smooth="yes"/>
      <point x="741.0" y="576.0"/>
      <point x="913.0" y="707.0"/>
      <point x="1010.0" y="868.0" type="curve"/>
      <point x="939.0" y="991.0" type="line"/>
      <point x="865.0" y="877.0"/>
      <point x="729.0" y="790.0"/>
      <point x="574.0" y="790.0" type="curve" smooth="yes"/>
      <point x="425.0" y="790.0"/>
      <point x="326.0" y="890.0"/>
      <point x="326.0" y="1036.0" type="curve" smooth="yes"/>
      <point x="326.0" y="1153.0"/>
      <point x="425.0" y="1250.0"/>
      <point x="573.0" y="1250.0" type="curve" smooth="yes"/>
      <point x="773.0" y="1250.0"/>
      <point x="870.0" y="1102.0"/>
      <point x="870.0" y="813.0" type="curve" smooth="yes"/>
      <point x="870.0" y="326.0"/>
      <point x="699.0" y="210.0"/>
      <point x="502.0" y="210.0" type="curve" smooth="yes"/>
      <point x="406.0" y="210.0"/>
      <point x="294.0" y="234.0"/>
      <point x="208.0" y="320.0" type="curve"/>
    </contour>
  </outline>
</glyph>
<glyph name="Colon" format="2">
  <advance width="710.0"/>
  <unicode hex="003A"/>
  <outline>
    <contour>
      <point x="200.0" y="150.0" type="curve" smooth="yes"/>
      <point x="200.0" y="46.0"/>
      <point x="274.0" y="-25.0"/>
      <point x="375.0" y="-25.0" type="curve" smooth="yes"/>
      <point x="477.0" y="-25.0"/>
      <point x="550.0" y="46.0"/>
      <point x="550.0" y="150.0" type="curve" smooth="yes"/>
      <point x="550.0" y="252.0"/>
      <point x="477.0" y="325.0"/>
      <point x="375.0" y="325.0" type="curve" smooth="yes"/>
      <point x="274.0" y="325.0"/>
      <point x="200.0" y="252.0"/>
    </contour>
    <contour>
      <point x="200.0" y="750.0" type="curve" smooth="yes"/>
      <point x="200.0" y="646.0"/>
      <point x="274.0" y="575.0"/>
      <point x="375.0" y="575.0" type="curve" smooth="yes"/>
      <point x="477.0" y="575.0"/>
      <point x="550.0" y="646.0"/>
      <point x="550.0" y="750.0" type="curve" smooth="yes"/>
      <point x="550.0" y="852.0"/>
      <point x="477.0" y="925.0"/>
      <point x="375.0" y="925.0" type="curve" smooth="yes"/>
      <point x="274.0" y="925.0"/>
      <point x="200.0" y="852.0"/>
    </contour>
  </outline>
</glyph>
<glyph name="Semicolon" format="2">
  <advance width="710.0"/>
  <unicode hex="003B"/>
  <outline>
    <contour>
      <point x="200.0" y="750.0" type="curve" smooth="yes"/>
      <point x="200.0" y="646.0"/>
      <point x="274.0" y="575.0"/>
      <point x="375.0" y="575.0" type="curve" smooth="yes"/>
      <point x="477.0" y="575.0"/>
      <point x="550.0" y="646.0"/>
      <point x="550.0" y="750.0" type="curve" smooth="yes"/>
      <point x="550.0" y="852.0"/>
      <point x="477.0" y="925.0"/>
      <point x="375.0" y="925.0" type="curve" smooth="yes"/>
      <point x="274.0" y="925.0"/>
      <point x="200.0" y="852.0"/>
    </contour>
    <contour>
      <point x="185.0" y="50.0" type="line"/>
      <point x="345.0" y="50.0" type="line"/>
      <point x="345.0" y="-34.0"/>
      <point x="290.0" y="-153.0"/>
      <point x="185.0" y="-265.0" type="curve"/>
      <point x="330.0" y="-335.0" type="line"/>
      <point x="454.0" y="-228.0"/>
      <point x="560.0" y="-49.0"/>
      <point x="560.0" y="130.0" type="curve" smooth="yes"/>
      <point x="560.0" y="254.0"/>
      <point x="489.0" y="340.0"/>
      <point x="375.0" y="340.0" type="curve" smooth="yes"/>
      <point x="262.0" y="340.0"/>
      <point x="185.0" y="255.0"/>
      <point x="185.0" y="180.0" type="curve" smooth="yes"/>
    </contour>
  </outline>
</glyph>
<glyph name="LTSgn" format="2">
  <advance width="1200.0"/>
  <unicode hex="003C"/>
  <outline>
    <contour>
      <point x="1070.0" y="475.0" type="line"/>
      <point x="390.0" y="730.0" type="line"/>
      <point x="1070.0" y="985.0" type="line"/>
      <point x="1070.0" y="1215.0" type="line"/>
      <point x="110.0" y="825.0" type="line"/>
      <point x="110.0" y="635.0" type="line"/>
      <point x="1070.0" y="245.0" type="line"/>
    </contour>
  </outline>
</glyph>
<glyph name="EqSgn" format="2">
  <advance width="1200.0"/>
  <unicode hex="003D"/>
  <outline>
    <contour>
      <point x="120.0" y="440.0" type="line"/>
      <point x="1080.0" y="440.0" type="line"/>
      <point x="1080.0" y="650.0" type="line"/>
      <point x="120.0" y="650.0" type="line"/>
    </contour>
    <contour>
      <point x="120.0" y="810.0" type="line"/>
      <point x="1080.0" y="810.0" type="line"/>
      <point x="1080.0" y="1020.0" type="line"/>
      <point x="120.0" y="1020.0" type="line"/>
    </contour>
  </outline>
</glyph>
<glyph name="GTSgn" format="2">
  <advance width="1200.0"/>
  <unicode hex="003E"/>
  <outline>
    <contour>
      <point x="130.0" y="245.0" type="line"/>
      <point x="1090.0" y="635.0" type="line"/>
      <point x="1090.0" y="825.0" type="line"/>
      <point x="130.0" y="1215.0" type="line"/>
      <point x="130.0" y="985.0" type="line"/>
      <point x="810.0" y="730.0" type="line"/>
      <point x="130.0" y="475.0" type="line"/>
    </contour>
  </outline>
</glyph>
<glyph name="QstnMrk" format="2">
  <advance width="1090.0"/>
  <unicode hex="003F"/>
  <outline>
    <contour>
      <point x="640.0" y="500.0" type="line"/>
      <point x="640.0" y="671.0"/>
      <point x="668.0" y="805.0"/>
      <point x="767.0" y="956.0" type="curve" smooth="yes"/>
      <point x="837.0" y="1063.0"/>
      <point x="900.0" y="1117.0"/>
      <point x="900.0" y="1220.0" type="curve" smooth="yes"/>
      <point x="900.0" y="1402.0"/>
      <point x="757.0" y="1540.0"/>
      <point x="500.0" y="1540.0" type="curve" smooth="yes"/>
      <point x="355.0" y="1540.0"/>
      <point x="206.0" y="1470.0"/>
      <point x="140.0" y="1407.0" type="curve"/>
      <point x="185.0" y="1168.0" type="line"/>
      <point x="261.0" y="1247.0"/>
      <point x="372.0" y="1295.0"/>
      <point x="472.0" y="1295.0" type="curve" smooth="yes"/>
      <point x="569.0" y="1295.0"/>
      <point x="615.0" y="1249.0"/>
      <point x="615.0" y="1190.0" type="curve" smooth="yes"/>
      <point x="615.0" y="1139.0"/>
      <point x="565.0" y="1096.0"/>
      <point x="495.0" y="980.0" type="curve" smooth="yes"/>
      <point x="434.0" y="879.0"/>
      <point x="375.0" y="710.0"/>
      <point x="375.0" y="500.0" type="curve"/>
    </contour>
    <contour>
      <point x="335.0" y="150.0" type="curve" smooth="yes"/>
      <point x="335.0" y="46.0"/>
      <point x="409.0" y="-25.0"/>
      <point x="510.0" y="-25.0" type="curve" smooth="yes"/>
      <point x="612.0" y="-25.0"/>
      <point x="685.0" y="46.0"/>
      <point x="685.0" y="150.0" type="curve" smooth="yes"/>
      <point x="685.0" y="252.0"/>
      <point x="612.0" y="325.0"/>
      <point x="510.0" y="325.0" type="curve" smooth="yes"/>
      <point x="409.0" y="325.0"/>
      <point x="335.0" y="252.0"/>
    </contour>
  </outline>
</glyph>
<glyph name="AtSgn" format="2">
  <advance width="1742.0"/>
  <unicode hex="0040"/>
  <outline>
    <contour>
      <point x="1140.0" y="10.0" type="line"/>
      <point x="1077.0" y="-34.0"/>
      <point x="988.0" y="-60.0"/>
      <point x="895.0" y="-60.0" type="curve" smooth="yes"/>
      <point x="558.0" y="-60.0"/>
      <point x="290.0" y="204.0"/>
      <point x="290.0" y="605.0" type="curve" smooth="yes"/>
      <point x="290.0" y="973.0"/>
      <point x="557.0" y="1240.0"/>
      <point x="895.0" y="1240.0" type="curve" smooth="yes"/>
      <point x="1278.0" y="1240.0"/>
      <point x="1460.0" y="992.0"/>
      <point x="1460.0" y="670.0" type="curve" smooth="yes"/>
      <point x="1460.0" y="452.0"/>
      <point x="1363.0" y="335.0"/>
      <point x="1305.0" y="335.0" type="curve" smooth="yes"/>
      <point x="1256.0" y="335.0"/>
      <point x="1220.0" y="430.0"/>
      <point x="1220.0" y="650.0" type="curve" smooth="yes"/>
      <point x="1220.0" y="980.0" type="line"/>
      <point x="1133.0" y="1015.0"/>
      <point x="986.0" y="1040.0"/>
      <point x="905.0" y="1040.0" type="curve" smooth="yes"/>
      <point x="741.0" y="1040.0"/>
      <point x="618.0" y="961.0"/>
      <point x="535.0" y="825.0" type="curve" smooth="yes"/>
      <point x="488.0" y="746.0"/>
      <point x="460.0" y="653.0"/>
      <point x="460.0" y="530.0" type="curve" smooth="yes"/>
      <point x="460.0" y="304.0"/>
      <point x="606.0" y="163.0"/>
      <point x="740.0" y="163.0" type="curve" smooth="yes"/>
      <point x="867.0" y="163.0"/>
      <point x="1013.0" y="331.0"/>
      <point x="1065.0" y="455.0" type="curve"/>
      <point x="1075.0" y="287.0"/>
      <point x="1153.0" y="160.0"/>
      <point x="1275.0" y="160.0" type="curve" smooth="yes"/>
      <point x="1450.0" y="160.0"/>
      <point x="1650.0" y="358.0"/>
      <point x="1650.0" y="700.0" type="curve" smooth="yes"/>
      <point x="1650.0" y="1137.0"/>
      <point x="1342.0" y="1425.0"/>
      <point x="905.0" y="1425.0" type="curve" smooth="yes"/>
      <point x="480.0" y="1425.0"/>
      <point x="90.0" y="1136.0"/>
      <point x="90.0" y="575.0" type="curve" smooth="yes"/>
      <point x="90.0" y="38.0"/>
      <point x="479.0" y="-245.0"/>
      <point x="880.0" y="-245.0" type="curve" smooth="yes"/>
      <point x="1015.0" y="-245.0"/>
      <point x="1175.0" y="-198.0"/>
      <point x="1275.0" y="-128.0" type="curve"/>
    </contour>
    <contour>
      <point x="1020.0" y="710.0" type="line"/>
      <point x="988.0" y="572.0"/>
      <point x="863.0" y="350.0"/>
      <point x="773.0" y="350.0" type="curve" smooth="yes"/>
      <point x="701.0" y="350.0"/>
      <point x="660.0" y="428.0"/>
      <point x="660.0" y="575.0" type="curve" smooth="yes"/>
      <point x="660.0" y="652.0"/>
      <point x="682.0" y="737.0"/>
      <point x="720.0" y="786.0" type="curve" smooth="yes"/>
      <point x="756.0" y="831.0"/>
      <point x="807.0" y="855.0"/>
      <point x="875.0" y="855.0" type="curve" smooth="yes"/>
      <point x="949.0" y="855.0"/>
      <point x="987.0" y="836.0"/>
      <point x="1020.0" y="820.0" type="curve"/>
    </contour>
  </outline>
</glyph>
<glyph name="LtnCapA" format="2">
  <advance width="1485.0"/>
  <unicode hex="0041"/>
  <anchor x="1275.0" y="0.0" name="H"/>
  <anchor x="732.0" y="-100.0" name="L"/>
  <anchor x="1495.0" y="0.0" name="O"/>
  <anchor x="732.0" y="1530.0" name="U"/>
  <outline>
    <contour>
      <point x="1115.0" y="0.0" type="line"/>
      <point x="1408.0" y="0.0" type="line"/>
      <point x="1373.0" y="80.0"/>
      <point x="1341.0" y="168.0"/>
      <point x="1278.0" y="355.0" type="curve" smooth="yes"/>
      <point x="908.0" y="1460.0" type="line"/>
      <point x="552.0" y="1460.0" type="line"/>
      <point x="182.0" y="355.0" type="line" smooth="yes"/>
      <point x="119.0" y="166.0"/>
      <point x="88.0" y="81.0"/>
      <point x="52.0" y="0.0" type="curve"/>
      <point x="350.0" y="0.0" type="line"/>
      <point x="460.0" y="355.0" type="line"/>
      <point x="1004.0" y="355.0" type="line"/>
    </contour>
    <contour>
      <point x="730.0" y="1228.0" type="line"/>
      <point x="936.0" y="570.0" type="line"/>
      <point x="526.0" y="570.0" type="line"/>
    </contour>
  </outline>
</glyph>
<glyph name="LtnCapB" format="2">
  <advance width="1385.0"/>
  <unicode hex="0042"/>
  <anchor x="670.0" y="-100.0" name="L"/>
  <anchor x="670.0" y="1530.0" name="U"/>
  <outline>
    <contour>
      <point x="450.0" y="1248.0" type="line"/>
      <point x="487.0" y="1250.0"/>
      <point x="562.0" y="1253.0"/>
      <point x="631.0" y="1253.0" type="curve" smooth="yes"/>
      <point x="818.0" y="1253.0"/>
      <point x="897.0" y="1196.0"/>
      <point x="897.0" y="1077.0" type="curve" smooth="yes"/>
      <point x="897.0" y="951.0"/>
      <point x="794.0" y="875.0"/>
      <point x="605.0" y="875.0" type="curve" smooth="yes"/>
      <point x="450.0" y="875.0" type="line"/>
    </contour>
    <contour>
      <point x="1245.0" y="430.0" type="curve" smooth="yes"/>
      <point x="1245.0" y="672.0"/>
      <point x="1084.0" y="760.0"/>
      <point x="935.0" y="800.0" type="curve"/>
      <point x="1065.0" y="850.0"/>
      <point x="1170.0" y="947.0"/>
      <point x="1170.0" y="1110.0" type="curve" smooth="yes"/>
      <point x="1170.0" y="1378.0"/>
      <point x="937.0" y="1470.0"/>
      <point x="615.0" y="1470.0" type="curve" smooth="yes"/>
      <point x="422.0" y="1470.0"/>
      <point x="248.0" y="1466.0"/>
      <point x="150.0" y="1460.0" type="curve"/>
      <point x="165.0" y="1380.0"/>
      <point x="165.0" y="1196.0"/>
      <point x="165.0" y="1000.0" type="curve" smooth="yes"/>
      <point x="165.0" y="455.0" type="line" smooth="yes"/>
      <point x="165.0" y="257.0"/>
      <point x="165.0" y="80.0"/>
      <point x="150.0" y="0.0" type="curve"/>
      <point x="150.0" y="0.0"/>
      <point x="401.0" y="-10.0"/>
      <point x="631.0" y="-10.0" type="curve" smooth="yes"/>
      <point x="1055.0" y="-10.0"/>
      <point x="1245.0" y="181.0"/>
    </contour>
    <contour>
      <point x="450.0" y="658.0" type="line"/>
      <point x="643.0" y="658.0" type="line" smooth="yes"/>
      <point x="853.0" y="658.0"/>
      <point x="972.0" y="587.0"/>
      <point x="972.0" y="450.0" type="curve" smooth="yes"/>
      <point x="972.0" y="269.0"/>
      <point x="826.0" y="215.0"/>
      <point x="652.0" y="215.0" type="curve" smooth="yes"/>
      <point x="552.0" y="215.0"/>
      <point x="483.0" y="218.0"/>
      <point x="450.0" y="220.0" type="curve"/>
    </contour>
  </outline>
</glyph>
<glyph name="LtnCapC" format="2">
  <advance width="1385.0"/>
  <unicode hex="0043"/>
  <anchor x="745.0" y="0.0" name="H"/>
  <anchor x="745.0" y="-100.0" name="L"/>
  <anchor x="745.0" y="1530.0" name="U"/>
  <outline>
    <contour>
      <point x="1215.0" y="405.0" type="line"/>
      <point x="1105.0" y="293.0"/>
      <point x="940.0" y="220.0"/>
      <point x="790.0" y="220.0" type="curve" smooth="yes"/>
      <point x="531.0" y="220.0"/>
      <point x="375.0" y="413.0"/>
      <point x="375.0" y="735.0" type="curve" smooth="yes"/>
      <point x="375.0" y="1074.0"/>
      <point x="557.0" y="1245.0"/>
      <point x="800.0" y="1245.0" type="curve" smooth="yes"/>
      <point x="931.0" y="1245.0"/>
      <point x="1053.0" y="1205.0"/>
      <point x="1180.0" y="1105.0" type="curve"/>
      <point x="1250.0" y="1345.0" type="line"/>
      <point x="1106.0" y="1449.0"/>
      <point x="969.0" y="1485.0"/>
      <point x="785.0" y="1485.0" type="curve" smooth="yes"/>
      <point x="413.0" y="1485.0"/>
      <point x="90.0" y="1225.0"/>
      <point x="90.0" y="710.0" type="curve" smooth="yes"/>
      <point x="90.0" y="260.0"/>
      <point x="341.0" y="-25.0"/>
      <point x="755.0" y="-25.0" type="curve" smooth="yes"/>
      <point x="926.0" y="-25.0"/>
      <point x="1142.0" y="42.0"/>
      <point x="1265.0" y="140.0" type="curve"/>
    </contour>
  </outline>
</glyph>
<glyph name="LtnCapD" format="2">
  <advance width="1485.0"/>
  <unicode hex="0044"/>
  <anchor x="800.0" y="-100.0" name="L"/>
  <anchor x="800.0" y="1530.0" name="U"/>
  <outline>
    <contour>
      <point x="165.0" y="455.0" type="line"/>
      <point x="164.0" y="257.0"/>
      <point x="165.0" y="80.0"/>
      <point x="150.0" y="0.0" type="curve"/>
      <point x="150.0" y="0.0"/>
      <point x="474.0" y="-10.0"/>
      <point x="609.0" y="-10.0" type="curve" smooth="yes"/>
      <point x="919.0" y="-10.0"/>
      <point x="1370.0" y="145.0"/>
      <point x="1370.0" y="740.0" type="curve" smooth="yes"/>
      <point x="1370.0" y="1374.0"/>
      <point x="906.0" y="1470.0"/>
      <point x="630.0" y="1470.0" type="curve" smooth="yes"/>
      <point x="487.0" y="1470.0"/>
      <point x="239.0" y="1466.0"/>
      <point x="150.0" y="1460.0" type="curve"/>
      <point x="165.0" y="1380.0"/>
      <point x="165.0" y="1196.0"/>
      <point x="165.0" y="1000.0" type="curve" smooth="yes"/>
    </contour>
    <contour>
      <point x="450.0" y="1241.0" type="line"/>
      <point x="492.0" y="1243.0"/>
      <point x="582.0" y="1246.0"/>
      <point x="637.0" y="1246.0" type="curve" smooth="yes"/>
      <point x="897.0" y="1246.0"/>
      <point x="1078.0" y="1118.0"/>
      <point x="1078.0" y="720.0" type="curve" smooth="yes"/>
      <point x="1078.0" y="357.0"/>
      <point x="856.0" y="221.0"/>
      <point x="633.0" y="221.0" type="curve" smooth="yes"/>
      <point x="554.0" y="221.0"/>
      <point x="489.0" y="227.0"/>
      <point x="450.0" y="231.0" type="curve"/>
    </contour>
  </outline>
</glyph>
<glyph name="LtnCapE" format="2">
  <advance width="1212.0"/>
  <unicode hex="0045"/>
  <anchor x="610.0" y="0.0" name="H"/>
  <anchor x="610.0" y="-100.0" name="L"/>
  <anchor x="1004.0" y="0.0" name="O"/>
  <anchor x="1247.0" y="1200.0" name="R"/>
  <anchor x="610.0" y="1530.0" name="U"/>
  <outline>
    <contour>
      <point x="450.0" y="875.0" type="line"/>
      <point x="450.0" y="1230.0" type="line"/>
      <point x="1072.0" y="1230.0" type="line"/>
      <point x="1072.0" y="1460.0" type="line"/>
      <point x="150.0" y="1460.0" type="line"/>
      <point x="165.0" y="1380.0"/>
      <point x="165.0" y="1222.0"/>
      <point x="165.0" y="1025.0" type="curve" smooth="yes"/>
      <point x="165.0" y="435.0" type="line" smooth="yes"/>
      <point x="165.0" y="238.0"/>
      <point x="165.0" y="80.0"/>
      <point x="150.0" y="0.0" type="curve"/>
      <point x="1102.0" y="0.0" type="line"/>
      <point x="1102.0" y="245.0" type="line"/>
      <point x="1024.0" y="231.0"/>
      <point x="899.0" y="230.0"/>
      <point x="708.0" y="230.0" type="curve" smooth="yes"/>
      <point x="450.0" y="230.0" type="line"/>
      <point x="450.0" y="650.0" type="line"/>
      <point x="997.0" y="650.0" type="line"/>
      <point x="997.0" y="875.0" type="line"/>
    </contour>
  </outline>
</glyph>
<glyph name="LtnCapF" format="2">
  <advance width="1200.0"/>
  <unicode hex="0046"/>
  <anchor x="630.0" y="-100.0" name="L"/>
  <anchor x="630.0" y="1530.0" name="U"/>
  <outline>
    <contour>
      <point x="450.0" y="860.0" type="line"/>
      <point x="450.0" y="1230.0" type="line"/>
      <point x="1090.0" y="1230.0" type="line"/>
      <point x="1090.0" y="1460.0" type="line"/>
      <point x="150.0" y="1460.0" type="line"/>
      <point x="165.0" y="1380.0"/>
      <point x="165.0" y="1217.0"/>
      <point x="165.0" y="1020.0" type="curve" smooth="yes"/>
      <point x="165.0" y="435.0" type="line" smooth="yes"/>
      <point x="165.0" y="238.0"/>
      <point x="165.0" y="80.0"/>
      <point x="150.0" y="0.0" type="curve"/>
      <point x="465.0" y="0.0" type="line"/>
      <point x="450.0" y="73.0"/>
      <point x="450.0" y="222.0"/>
      <point x="450.0" y="408.0" type="curve" smooth="yes"/>
      <point x="450.0" y="635.0" type="line"/>
      <point x="1005.0" y="635.0" type="line"/>
      <point x="1005.0" y="860.0" type="line"/>
    </contour>
  </outline>
</glyph>
<glyph name="LtnCapG" format="2">
  <advance width="1472.0"/>
  <unicode hex="0047"/>
  <anchor x="807.0" y="0.0" name="H"/>
  <anchor x="807.0" y="-100.0" name="L"/>
  <anchor x="807.0" y="1530.0" name="U"/>
  <outline>
    <contour>
      <point x="1337.0" y="785.0" type="line"/>
      <point x="767.0" y="785.0" type="line"/>
      <point x="767.0" y="560.0" type="line"/>
      <point x="1082.0" y="560.0" type="line"/>
      <point x="1082.0" y="294.0" type="line"/>
      <point x="966.0" y="236.0"/>
      <point x="883.0" y="220.0"/>
      <point x="769.0" y="220.0" type="curve" smooth="yes"/>
      <point x="532.0" y="220.0"/>
      <point x="375.0" y="420.0"/>
      <point x="375.0" y="745.0" type="curve" smooth="yes"/>
      <point x="375.0" y="1048.0"/>
      <point x="545.0" y="1245.0"/>
      <point x="810.0" y="1245.0" type="curve" smooth="yes"/>
      <point x="953.0" y="1245.0"/>
      <point x="1097.0" y="1205.0"/>
      <point x="1236.0" y="1107.0" type="curve"/>
      <point x="1322.0" y="1345.0" type="line"/>
      <point x="1137.0" y="1462.0"/>
      <point x="989.0" y="1485.0"/>
      <point x="818.0" y="1485.0" type="curve" smooth="yes"/>
      <point x="403.0" y="1485.0"/>
      <point x="90.0" y="1199.0"/>
      <point x="90.0" y="720.0" type="curve" smooth="yes"/>
      <point x="90.0" y="241.0"/>
      <point x="377.0" y="-25.0"/>
      <point x="777.0" y="-25.0" type="curve" smooth="yes"/>
      <point x="960.0" y="-25.0"/>
      <point x="1120.0" y="11.0"/>
      <point x="1337.0" y="155.0" type="curve"/>
    </contour>
  </outline>
</glyph>
<glyph name="LtnCapH" format="2">
  <advance width="1515.0"/>
  <unicode hex="0048"/>
  <anchor x="305.0" y="0.0" name="H"/>
  <anchor x="745.0" y="-100.0" name="L"/>
  <anchor x="745.0" y="1530.0" name="U"/>
  <outline>
    <contour>
      <point x="1040.0" y="1460.0" type="line"/>
      <point x="1040.0" y="860.0" type="line"/>
      <point x="450.0" y="860.0" type="line"/>
      <point x="450.0" y="1460.0" type="line"/>
      <point x="150.0" y="1460.0" type="line"/>
      <point x="165.0" y="1380.0"/>
      <point x="165.0" y="1227.0"/>
      <point x="165.0" y="1030.0" type="curve" smooth="yes"/>
      <point x="165.0" y="430.0" type="line" smooth="yes"/>
      <point x="165.0" y="233.0"/>
      <point x="165.0" y="80.0"/>
      <point x="150.0" y="0.0" type="curve"/>
      <point x="150.0" y="0.0"/>
      <point x="450.0" y="0.0"/>
      <point x="450.0" y="0.0" type="curve"/>
      <point x="450.0" y="635.0" type="line"/>
      <point x="1040.0" y="635.0" type="line"/>
      <point x="1040.0" y="0.0" type="line"/>
      <point x="1040.0" y="0.0"/>
      <point x="1340.0" y="0.0"/>
      <point x="1340.0" y="0.0" type="curve"/>
      <point x="1325.0" y="80.0"/>
      <point x="1325.0" y="233.0"/>
      <point x="1325.0" y="430.0" type="curve" smooth="yes"/>
      <point x="1325.0" y="1030.0" type="line" smooth="yes"/>
      <point x="1325.0" y="1227.0"/>
      <point x="1325.0" y="1380.0"/>
      <point x="1340.0" y="1460.0" type="curve"/>
    </contour>
  </outline>
</glyph>
<glyph name="LtnCapI" format="2">
  <advance width="1045.0"/>
  <unicode hex="0049"/>
  <anchor x="520.0" y="0.0" name="H"/>
  <anchor x="516.0" y="-100.0" name="L"/>
  <anchor x="712.0" y="0.0" name="O"/>
  <anchor x="1014.0" y="1200.0" name="R"/>
  <anchor x="520.0" y="1530.0" name="U"/>
  <outline>
    <contour>
      <point x="130.0" y="1460.0" type="line"/>
      <point x="130.0" y="1255.0" type="line"/>
      <point x="370.0" y="1255.0" type="line"/>
      <point x="370.0" y="205.0" type="line"/>
      <point x="130.0" y="205.0" type="line"/>
      <point x="130.0" y="0.0" type="line"/>
      <point x="895.0" y="0.0" type="line"/>
      <point x="895.0" y="205.0" type="line"/>
      <point x="655.0" y="205.0" type="line"/>
      <point x="655.0" y="1255.0" type="line"/>
      <point x="895.0" y="1255.0" type="line"/>
      <point x="895.0" y="1460.0" type="line"/>
    </contour>
  </outline>
</glyph>
<glyph name="LtnCapJ" format="2">
  <advance width="1030.0"/>
  <unicode hex="004A"/>
  <anchor x="415.0" y="-100.0" name="L"/>
  <anchor x="705.0" y="1530.0" name="U"/>
  <outline>
    <contour>
      <point x="555.0" y="1460.0" type="line"/>
      <point x="568.0" y="1354.0"/>
      <point x="570.0" y="1175.0"/>
      <point x="570.0" y="980.0" type="curve" smooth="yes"/>
      <point x="570.0" y="558.0" type="line" smooth="yes"/>
      <point x="570.0" y="383.0"/>
      <point x="540.0" y="227.0"/>
      <point x="365.0" y="227.0" type="curve" smooth="yes"/>
      <point x="264.0" y="227.0"/>
      <point x="153.0" y="270.0"/>
      <point x="79.0" y="347.0" type="curve"/>
      <point x="30.0" y="90.0" type="line"/>
      <point x="109.0" y="9.0"/>
      <point x="258.0" y="-25.0"/>
      <point x="363.0" y="-25.0" type="curve" smooth="yes"/>
      <point x="658.0" y="-25.0"/>
      <point x="855.0" y="129.0"/>
      <point x="855.0" y="535.0" type="curve" smooth="yes"/>
      <point x="855.0" y="618.0"/>
      <point x="855.0" y="1460.0"/>
      <point x="855.0" y="1460.0" type="curve"/>
    </contour>
  </outline>
</glyph>
<glyph name="LtnCapK" format="2">
  <advance width="1430.0"/>
  <unicode hex="004B"/>
  <anchor x="320.0" y="0.0" name="H"/>
  <anchor x="740.0" y="-100.0" name="L"/>
  <anchor x="725.0" y="1530.0" name="U"/>
  <outline>
    <contour>
      <point x="944.0" y="1460.0" type="line"/>
      <point x="371.0" y="732.0" type="line"/>
      <point x="579.0" y="676.0" type="line"/>
      <point x="1280.0" y="1460.0" type="line"/>
    </contour>
    <contour>
      <point x="389.0" y="731.0" type="line"/>
      <point x="990.0" y="0.0" type="line"/>
      <point x="1360.0" y="0.0" type="line"/>
      <point x="614.0" y="829.0" type="line"/>
    </contour>
    <contour>
      <point x="450.0" y="1460.0" type="line"/>
      <point x="150.0" y="1460.0" type="line"/>
      <point x="165.0" y="1380.0"/>
      <point x="165.0" y="1222.0"/>
      <point x="165.0" y="1025.0" type="curve" smooth="yes"/>
      <point x="165.0" y="435.0" type="line" smooth="yes"/>
      <point x="165.0" y="238.0"/>
      <point x="165.0" y="80.0"/>
      <point x="150.0" y="0.0" type="curve"/>
      <point x="450.0" y="0.0" type="line"/>
    </contour>
  </outline>
</glyph>
<glyph name="LtnCapL" format="2">
  <advance width="1130.0"/>
  <unicode hex="004C"/>
  <anchor x="620.0" y="0.0" name="H"/>
  <anchor x="620.0" y="-100.0" name="L"/>
  <anchor x="650.0" y="1200.0" name="R"/>
  <anchor x="620.0" y="1530.0" name="U"/>
  <outline>
    <contour>
      <point x="450.0" y="230.0" type="line"/>
      <point x="450.0" y="1460.0" type="line"/>
      <point x="150.0" y="1460.0" type="line"/>
      <point x="165.0" y="1380.0"/>
      <point x="165.0" y="1222.0"/>
      <point x="165.0" y="1025.0" type="curve" smooth="yes"/>
      <point x="165.0" y="435.0" type="line" smooth="yes"/>
      <point x="165.0" y="238.0"/>
      <point x="165.0" y="80.0"/>
      <point x="150.0" y="0.0" type="curve"/>
      <point x="1085.0" y="0.0" type="line"/>
      <point x="1085.0" y="245.0" type="line"/>
      <point x="1008.0" y="231.0"/>
      <point x="855.0" y="230.0"/>
      <point x="666.0" y="230.0" type="curve" smooth="yes"/>
    </contour>
  </outline>
</glyph>
<glyph name="LtnCapM" format="2">
  <advance width="1855.0"/>
  <unicode hex="004D"/>
  <anchor x="915.0" y="-100.0" name="L"/>
  <anchor x="915.0" y="1530.0" name="U"/>
  <outline>
    <contour>
      <point x="917.0" y="275.0" type="line"/>
      <point x="575.0" y="1460.0" type="line"/>
      <point x="315.0" y="1460.0" type="line"/>
      <point x="436.0" y="1170.0" type="line"/>
      <point x="770.0" y="0.0" type="line"/>
      <point x="1065.0" y="0.0" type="line"/>
      <point x="1397.0" y="1170.0" type="line"/>
      <point x="1517.0" y="1460.0" type="line"/>
      <point x="1260.0" y="1460.0" type="line"/>
    </contour>
    <contour>
      <point x="220.0" y="1460.0" type="line"/>
      <point x="220.0" y="1460.0"/>
      <point x="176.0" y="198.0"/>
      <point x="150.0" y="0.0" type="curve"/>
      <point x="420.0" y="0.0" type="line"/>
      <point x="449.0" y="1205.0" type="line"/>
      <point x="485.0" y="1460.0" type="line"/>
    </contour>
    <contour>
      <point x="1680.0" y="0.0" type="line"/>
      <point x="1651.0" y="198.0"/>
      <point x="1610.0" y="1460.0"/>
      <point x="1610.0" y="1460.0" type="curve"/>
      <point x="1340.0" y="1460.0" type="line"/>
      <point x="1385.0" y="1205.0" type="line"/>
      <point x="1410.0" y="0.0" type="line"/>
    </contour>
  </outline>
</glyph>
<glyph name="LtnCapN" format="2">
  <advance width="1545.0"/>
  <unicode hex="004E"/>
  <anchor x="1240.0" y="0.0" name="H"/>
  <anchor x="765.0" y="-100.0" name="L"/>
  <anchor x="765.0" y="1530.0" name="U"/>
  <outline>
    <contour>
      <point x="223.0" y="1310.0" type="line"/>
      <point x="1095.0" y="0.0" type="line"/>
      <point x="1297.0" y="150.0" type="line"/>
      <point x="425.0" y="1460.0" type="line"/>
    </contour>
    <contour>
      <point x="1095.0" y="0.0" type="line"/>
      <point x="1355.0" y="0.0" type="line"/>
      <point x="1355.0" y="1025.0" type="line" smooth="yes"/>
      <point x="1355.0" y="1222.0"/>
      <point x="1356.0" y="1380.0"/>
      <point x="1370.0" y="1460.0" type="curve"/>
      <point x="1095.0" y="1460.0" type="line"/>
    </contour>
    <contour>
      <point x="425.0" y="1460.0" type="line"/>
      <point x="150.0" y="1460.0" type="line"/>
      <point x="165.0" y="1380.0"/>
      <point x="165.0" y="1222.0"/>
      <point x="165.0" y="1025.0" type="curve" smooth="yes"/>
      <point x="165.0" y="435.0" type="line" smooth="yes"/>
      <point x="165.0" y="238.0"/>
      <point x="165.0" y="80.0"/>
      <point x="150.0" y="0.0" type="curve"/>
      <point x="425.0" y="0.0" type="line"/>
    </contour>
  </outline>
</glyph>
<glyph name="LtnCapO" format="2">
  <advance width="1500.0"/>
  <unicode hex="004F"/>
  <anchor x="740.0" y="0.0" name="H"/>
  <anchor x="740.0" y="-100.0" name="L"/>
  <anchor x="976.0" y="0.0" name="O"/>
  <anchor x="1480.0" y="1200.0" name="R"/>
  <anchor x="740.0" y="1530.0" name="U"/>
  <outline>
    <contour>
      <point x="1100.0" y="715.0" type="curve" smooth="yes"/>
      <point x="1100.0" y="404.0"/>
      <point x="940.0" y="220.0"/>
      <point x="740.0" y="220.0" type="curve" smooth="yes"/>
      <point x="524.0" y="220.0"/>
      <point x="375.0" y="423.0"/>
      <point x="375.0" y="745.0" type="curve" smooth="yes"/>
      <point x="375.0" y="1048.0"/>
      <point x="529.0" y="1240.0"/>
      <point x="740.0" y="1240.0" type="curve" smooth="yes"/>
      <point x="951.0" y="1240.0"/>
      <point x="1100.0" y="1041.0"/>
    </contour>
    <contour>
      <point x="1385.0" y="740.0" type="curve" smooth="yes"/>
      <point x="1385.0" y="1219.0"/>
      <point x="1091.0" y="1485.0"/>
      <point x="750.0" y="1485.0" type="curve" smooth="yes"/>
      <point x="404.0" y="1485.0"/>
      <point x="90.0" y="1199.0"/>
      <point x="90.0" y="720.0" type="curve" smooth="yes"/>
      <point x="90.0" y="241.0"/>
      <point x="385.0" y="-25.0"/>
      <point x="730.0" y="-25.0" type="curve" smooth="yes"/>
      <point x="1072.0" y="-25.0"/>
      <point x="1385.0" y="260.0"/>
    </contour>
  </outline>
</glyph>
<glyph name="LtnCapP" format="2">
  <advance width="1275.0"/>
  <unicode hex="0050"/>
  <anchor x="685.0" y="-100.0" name="L"/>
  <anchor x="685.0" y="1530.0" name="U"/>
  <outline>
    <contour>
      <point x="450.0" y="523.0" type="line"/>
      <point x="515.0" y="516.0"/>
      <point x="575.0" y="513.0"/>
      <point x="648.0" y="513.0" type="curve" smooth="yes"/>
      <point x="977.0" y="513.0"/>
      <point x="1200.0" y="702.0"/>
      <point x="1200.0" y="1010.0" type="curve" smooth="yes"/>
      <point x="1200.0" y="1316.0"/>
      <point x="981.0" y="1470.0"/>
      <point x="658.0" y="1470.0" type="curve" smooth="yes"/>
      <point x="445.0" y="1470.0"/>
      <point x="150.0" y="1460.0"/>
      <point x="150.0" y="1460.0" type="curve"/>
      <point x="165.0" y="1380.0"/>
      <point x="165.0" y="1196.0"/>
      <point x="165.0" y="1000.0" type="curve" smooth="yes"/>
      <point x="165.0" y="435.0" type="line" smooth="yes"/>
      <point x="165.0" y="238.0"/>
      <point x="165.0" y="80.0"/>
      <point x="150.0" y="0.0" type="curve"/>
      <point x="465.0" y="0.0" type="line"/>
      <point x="451.0" y="78.0"/>
      <point x="450.0" y="237.0"/>
      <point x="450.0" y="435.0" type="curve" smooth="yes"/>
    </contour>
    <contour>
      <point x="450.0" y="1240.0" type="line"/>
      <point x="506.0" y="1243.0"/>
      <point x="544.0" y="1245.0"/>
      <point x="622.0" y="1245.0" type="curve" smooth="yes"/>
      <point x="833.0" y="1245.0"/>
      <point x="915.0" y="1145.0"/>
      <point x="915.0" y="1000.0" type="curve" smooth="yes"/>
      <point x="915.0" y="820.0"/>
      <point x="811.0" y="730.0"/>
      <point x="618.0" y="730.0" type="curve" smooth="yes"/>
      <point x="556.0" y="730.0"/>
      <point x="493.0" y="733.0"/>
      <point x="450.0" y="740.0" type="curve"/>
    </contour>
  </outline>
</glyph>
<glyph name="LtnCapQ" format="2">
  <advance width="1545.0"/>
  <unicode hex="0051"/>
  <anchor x="747.0" y="-270.0" name="L"/>
  <anchor x="747.0" y="1530.0" name="U"/>
  <outline>
    <contour>
      <point x="1385.0" y="740.0" type="curve" smooth="yes"/>
      <point x="1385.0" y="1219.0"/>
      <point x="1091.0" y="1485.0"/>
      <point x="750.0" y="1485.0" type="curve" smooth="yes"/>
      <point x="404.0" y="1485.0"/>
      <point x="90.0" y="1199.0"/>
      <point x="90.0" y="720.0" type="curve" smooth="yes"/>
      <point x="90.0" y="241.0"/>
      <point x="385.0" y="-25.0"/>
      <point x="730.0" y="-25.0" type="curve" smooth="yes"/>
      <point x="807.0" y="-25.0"/>
      <point x="840.0" y="-23.0"/>
      <point x="889.0" y="-15.0" type="curve"/>
      <point x="958.0" y="-15.0"/>
      <point x="1266.0" y="-228.0"/>
      <point x="1350.0" y="-228.0" type="curve" smooth="yes"/>
      <point x="1424.0" y="-228.0"/>
      <point x="1502.0" y="-68.0"/>
      <point x="1535.0" y="-15.0" type="curve"/>
      <point x="1394.0" y="1.0"/>
      <point x="1277.0" y="68.0"/>
      <point x="1146.0" y="142.0" type="curve"/>
      <point x="1294.0" y="283.0"/>
      <point x="1385.0" y="471.0"/>
    </contour>
    <contour>
      <point x="1100.0" y="715.0" type="curve" smooth="yes"/>
      <point x="1100.0" y="404.0"/>
      <point x="943.0" y="220.0"/>
      <point x="740.0" y="220.0" type="curve" smooth="yes"/>
      <point x="524.0" y="220.0"/>
      <point x="375.0" y="423.0"/>
      <point x="375.0" y="745.0" type="curve" smooth="yes"/>
      <point x="375.0" y="1048.0"/>
      <point x="529.0" y="1240.0"/>
      <point x="740.0" y="1240.0" type="curve" smooth="yes"/>
      <point x="951.0" y="1240.0"/>
      <point x="1100.0" y="1041.0"/>
    </contour>
  </outline>
</glyph>
<glyph name="LtnCapR" format="2">
  <advance width="1380.0"/>
  <unicode hex="0052"/>
  <anchor x="690.0" y="0.0" name="H"/>
  <anchor x="690.0" y="-100.0" name="L"/>
  <anchor x="660.0" y="1530.0" name="U"/>
  <outline>
    <contour>
      <point x="450.0" y="585.0" type="line"/>
      <point x="625.0" y="585.0" type="line" smooth="yes"/>
      <point x="910.0" y="585.0"/>
      <point x="1175.0" y="723.0"/>
      <point x="1175.0" y="1040.0" type="curve" smooth="yes"/>
      <point x="1175.0" y="1329.0"/>
      <point x="961.0" y="1470.0"/>
      <point x="650.0" y="1470.0" type="curve" smooth="yes"/>
      <point x="416.0" y="1470.0"/>
      <point x="150.0" y="1460.0"/>
      <point x="150.0" y="1460.0" type="curve"/>
      <point x="165.0" y="1380.0"/>
      <point x="165.0" y="1196.0"/>
      <point x="165.0" y="1000.0" type="curve" smooth="yes"/>
      <point x="165.0" y="435.0" type="line" smooth="yes"/>
      <point x="165.0" y="238.0"/>
      <point x="165.0" y="80.0"/>
      <point x="150.0" y="0.0" type="curve"/>
      <point x="465.0" y="0.0" type="line"/>
      <point x="451.0" y="78.0"/>
      <point x="450.0" y="238.0"/>
      <point x="450.0" y="435.0" type="curve" smooth="yes"/>
    </contour>
    <contour>
      <point x="450.0" y="1240.0" type="line"/>
      <point x="503.0" y="1243.0"/>
      <point x="537.0" y="1245.0"/>
      <point x="615.0" y="1245.0" type="curve" smooth="yes"/>
      <point x="792.0" y="1245.0"/>
      <point x="890.0" y="1186.0"/>
      <point x="890.0" y="1035.0" type="curve" smooth="yes"/>
      <point x="890.0" y="859.0"/>
      <point x="780.0" y="800.0"/>
      <point x="605.0" y="800.0" type="curve" smooth="yes"/>
      <point x="450.0" y="800.0" type="line"/>
    </contour>
    <contour>
      <point x="556.0" y="635.0" type="line"/>
      <point x="975.0" y="0.0" type="line"/>
      <point x="1330.0" y="0.0" type="line"/>
      <point x="1263.0" y="73.0"/>
      <point x="827.0" y="687.0"/>
      <point x="827.0" y="687.0" type="curve"/>
    </contour>
  </outline>
</glyph>
<glyph name="LtnCapS" format="2">
  <advance width="1243.0"/>
  <unicode hex="0053"/>
  <anchor x="616.0" y="0.0" name="H"/>
  <anchor x="616.0" y="-100.0" name="L"/>
  <anchor x="616.0" y="1530.0" name="U"/>
  <outline>
    <contour>
      <point x="1075.0" y="1395.0" type="line"/>
      <point x="932.0" y="1458.0"/>
      <point x="810.0" y="1485.0"/>
      <point x="640.0" y="1485.0" type="curve" smooth="yes"/>
      <point x="280.0" y="1485.0"/>
      <point x="130.0" y="1239.0"/>
      <point x="130.0" y="1060.0" type="curve" smooth="yes"/>
      <point x="130.0" y="882.0"/>
      <point x="196.0" y="754.0"/>
      <point x="510.0" y="655.0" type="curve" smooth="yes"/>
      <point x="800.0" y="563.0"/>
      <point x="851.0" y="504.0"/>
      <point x="851.0" y="420.0" type="curve" smooth="yes"/>
      <point x="851.0" y="293.0"/>
      <point x="730.0" y="220.0"/>
      <point x="600.0" y="220.0" type="curve" smooth="yes"/>
      <point x="439.0" y="220.0"/>
      <point x="283.0" y="270.0"/>
      <point x="140.0" y="385.0" type="curve"/>
      <point x="90.0" y="110.0" type="line"/>
      <point x="201.0" y="31.0"/>
      <point x="391.0" y="-25.0"/>
      <point x="600.0" y="-25.0" type="curve" smooth="yes"/>
      <point x="895.0" y="-25.0"/>
      <point x="1138.0" y="169.0"/>
      <point x="1138.0" y="455.0" type="curve" smooth="yes"/>
      <point x="1138.0" y="666.0"/>
      <point x="994.0" y="787.0"/>
      <point x="727.0" y="870.0" type="curve" smooth="yes"/>
      <point x="464.0" y="952.0"/>
      <point x="416.0" y="994.0"/>
      <point x="416.0" y="1080.0" type="curve" smooth="yes"/>
      <point x="416.0" y="1162.0"/>
      <point x="506.0" y="1245.0"/>
      <point x="630.0" y="1245.0" type="curve" smooth="yes"/>
      <point x="771.0" y="1245.0"/>
      <point x="873.0" y="1209.0"/>
      <point x="1030.0" y="1130.0" type="curve"/>
    </contour>
  </outline>
</glyph>
<glyph name="LtnCapT" format="2">
  <advance width="1275.0"/>
  <unicode hex="0054"/>
  <anchor x="632.0" y="0.0" name="H"/>
  <anchor x="632.0" y="-100.0" name="L"/>
  <anchor x="632.0" y="1530.0" name="U"/>
  <outline>
    <contour>
      <point x="45.0" y="1460.0" type="line"/>
      <point x="45.0" y="1210.0" type="line"/>
      <point x="117.0" y="1227.0"/>
      <point x="196.0" y="1230.0"/>
      <point x="276.0" y="1230.0" type="curve" smooth="yes"/>
      <point x="488.0" y="1230.0" type="line"/>
      <point x="488.0" y="413.0" type="line" smooth="yes"/>
      <point x="488.0" y="226.0"/>
      <point x="485.0" y="76.0"/>
      <point x="468.0" y="0.0" type="curve"/>
      <point x="793.0" y="0.0" type="line"/>
      <point x="776.0" y="76.0"/>
      <point x="773.0" y="226.0"/>
      <point x="773.0" y="413.0" type="curve" smooth="yes"/>
      <point x="773.0" y="1230.0" type="line"/>
      <point x="989.0" y="1230.0" type="line" smooth="yes"/>
      <point x="1070.0" y="1230.0"/>
      <point x="1148.0" y="1227.0"/>
      <point x="1220.0" y="1210.0" type="curve"/>
      <point x="1220.0" y="1460.0" type="line"/>
    </contour>
  </outline>
</glyph>
<glyph name="LtnCapU" format="2">
  <advance width="1490.0"/>
  <unicode hex="0055"/>
  <anchor x="732.0" y="0.0" name="H"/>
  <anchor x="732.0" y="-100.0" name="L"/>
  <anchor x="950.0" y="0.0" name="O"/>
  <anchor x="1480.0" y="1200.0" name="R"/>
  <anchor x="732.0" y="1530.0" name="U"/>
  <outline>
    <contour>
      <point x="1015.0" y="1460.0" type="line"/>
      <point x="1015.0" y="560.0" type="line" smooth="yes"/>
      <point x="1015.0" y="344.0"/>
      <point x="952.0" y="204.0"/>
      <point x="735.0" y="204.0" type="curve" smooth="yes"/>
      <point x="513.0" y="204.0"/>
      <point x="450.0" y="344.0"/>
      <point x="450.0" y="560.0" type="curve" smooth="yes"/>
      <point x="450.0" y="1460.0" type="line"/>
      <point x="150.0" y="1460.0" type="line"/>
      <point x="164.0" y="1380.0"/>
      <point x="165.0" y="1222.0"/>
      <point x="165.0" y="1025.0" type="curve" smooth="yes"/>
      <point x="165.0" y="515.0" type="line" smooth="yes"/>
      <point x="165.0" y="190.0"/>
      <point x="356.0" y="-25.0"/>
      <point x="735.0" y="-25.0" type="curve" smooth="yes"/>
      <point x="1110.0" y="-25.0"/>
      <point x="1300.0" y="190.0"/>
      <point x="1300.0" y="515.0" type="curve" smooth="yes"/>
      <point x="1300.0" y="1025.0" type="line" smooth="yes"/>
      <point x="1300.0" y="1232.0"/>
      <point x="1302.0" y="1380.0"/>
      <point x="1315.0" y="1460.0" type="curve"/>
    </contour>
  </outline>
</glyph>
<glyph name="LtnCapV" format="2">
  <advance width="1465.0"/>
  <unicode hex="0056"/>
  <anchor x="730.0" y="0.0" name="H"/>
  <anchor x="722.0" y="-100.0" name="L"/>
  <anchor x="930.0" y="0.0" name="O"/>
  <anchor x="722.0" y="1530.0" name="U"/>
  <outline>
    <contour>
      <point x="1115.0" y="1460.0" type="line"/>
      <point x="722.0" y="260.0" type="line"/>
      <point x="330.0" y="1460.0" type="line"/>
      <point x="25.0" y="1460.0" type="line"/>
      <point x="58.0" y="1378.0"/>
      <point x="96.0" y="1288.0"/>
      <point x="165.0" y="1095.0" type="curve" smooth="yes"/>
      <point x="555.0" y="0.0" type="line"/>
      <point x="890.0" y="0.0" type="line"/>
      <point x="1280.0" y="1095.0" type="line" smooth="yes"/>
      <point x="1348.0" y="1289.0"/>
      <point x="1384.0" y="1378.0"/>
      <point x="1420.0" y="1460.0" type="curve"/>
    </contour>
  </outline>
</glyph>
<glyph name="LtnCapX" format="2">
  <advance width="1365.0"/>
  <unicode hex="0058"/>
  <anchor x="670.0" y="-100.0" name="L"/>
  <anchor x="670.0" y="1530.0" name="U"/>
  <outline>
    <contour>
      <point x="990.0" y="0.0" type="line"/>
      <point x="1310.0" y="0.0" type="line"/>
      <point x="1249.0" y="82.0"/>
      <point x="1211.0" y="125.0"/>
      <point x="1083.0" y="336.0" type="curve" smooth="yes"/>
      <point x="400.0" y="1460.0" type="line"/>
      <point x="75.0" y="1460.0" type="line"/>
      <point x="139.0" y="1376.0"/>
      <point x="189.0" y="1317.0"/>
      <point x="315.0" y="1110.0" type="curve"/>
    </contour>
    <contour>
      <point x="605.0" y="947.0" type="line"/>
      <point x="255.0" y="340.0" type="line" smooth="yes"/>
      <point x="133.0" y="128.0"/>
      <point x="93.0" y="86.0"/>
      <point x="30.0" y="0.0" type="curve"/>
      <point x="350.0" y="0.0" type="line"/>
      <point x="700.0" y="609.0" type="line"/>
    </contour>
    <contour>
      <point x="750.0" y="609.0" type="line"/>
      <point x="1040.0" y="1110.0" type="line" smooth="yes"/>
      <point x="1153.0" y="1306.0"/>
      <point x="1211.0" y="1383.0"/>
      <point x="1275.0" y="1460.0" type="curve"/>
      <point x="950.0" y="1460.0" type="line"/>
      <point x="655.0" y="947.0" type="line"/>
    </contour>
  </outline>
</glyph>
<glyph name="LtnCapY" format="2">
  <advance width="1364.0"/>
  <unicode hex="0059"/>
  <anchor x="672.0" y="-100.0" name="L"/>
  <anchor x="672.0" y="1530.0" name="U"/>
  <outline>
    <contour>
      <point x="575.0" y="560.0" type="line"/>
      <point x="782.0" y="675.0" type="line"/>
      <point x="357.0" y="1460.0" type="line"/>
      <point x="25.0" y="1460.0" type="line"/>
      <point x="137.0" y="1311.0"/>
      <point x="203.0" y="1197.0"/>
      <point x="280.0" y="1065.0" type="curve" smooth="yes"/>
    </contour>
    <contour>
      <point x="770.0" y="560.0" type="line"/>
      <point x="1069.0" y="1065.0" type="line" smooth="yes"/>
      <point x="1145.0" y="1195.0"/>
      <point x="1201.0" y="1291.0"/>
      <point x="1319.0" y="1460.0" type="curve"/>
      <point x="997.0" y="1460.0" type="line"/>
      <point x="577.0" y="675.0" type="line"/>
    </contour>
    <contour>
      <point x="530.0" y="695.0" type="line"/>
      <point x="530.0" y="435.0" type="line" smooth="yes"/>
      <point x="530.0" y="238.0"/>
      <point x="530.0" y="80.0"/>
      <point x="515.0" y="0.0" type="curve"/>
      <point x="830.0" y="0.0" type="line"/>
      <point x="815.0" y="80.0"/>
      <point x="815.0" y="238.0"/>
      <point x="815.0" y="435.0" type="curve" smooth="yes"/>
      <point x="815.0" y="695.0" type="line"/>
    </contour>
  </outline>
</glyph>
<glyph name="LftSqrBrac" format="2">
  <advance width="850.0"/>
  <unicode hex="005B"/>
  <outline>
    <contour>
      <point x="710.0" y="-410.0" type="line"/>
      <point x="710.0" y="-200.0" type="line"/>
      <point x="470.0" y="-200.0" type="line"/>
      <point x="470.0" y="1390.0" type="line"/>
      <point x="710.0" y="1390.0" type="line"/>
      <point x="710.0" y="1600.0" type="line"/>
      <point x="190.0" y="1600.0" type="line"/>
      <point x="190.0" y="-410.0" type="line"/>
    </contour>
  </outline>
</glyph>
<glyph name="ReverseSolidus" format="2">
  <advance width="1080.0"/>
  <unicode hex="005C"/>
  <outline>
    <contour>
      <point x="10.0" y="1600.0" type="line"/>
      <point x="840.0" y="-245.0" type="line"/>
      <point x="1070.0" y="-245.0" type="line"/>
      <point x="240.0" y="1600.0" type="line"/>
    </contour>
  </outline>
</glyph>
<glyph name="RtSqrBrac" format="2">
  <advance width="850.0"/>
  <unicode hex="005D"/>
  <outline>
    <contour>
      <point x="660.0" y="-410.0" type="line"/>
      <point x="660.0" y="1600.0" type="line"/>
      <point x="140.0" y="1600.0" type="line"/>
      <point x="140.0" y="1390.0" type="line"/>
      <point x="380.0" y="1390.0" type="line"/>
      <point x="380.0" y="-200.0" type="line"/>
      <point x="140.0" y="-200.0" type="line"/>
      <point x="140.0" y="-410.0" type="line"/>
    </contour>
  </outline>
</glyph>
<glyph name="CircumAccent" format="2">
  <advance width="880.0"/>
  <unicode hex="005E"/>
  <anchor x="440.0" y="1635.0" name="U"/>
  <outline>
    <contour>
      <point x="888.0" y="1200.0" type="line"/>
      <point x="598.0" y="1600.0" type="line"/>
      <point x="298.0" y="1600.0" type="line"/>
      <point x="8.0" y="1200.0" type="line"/>
      <point x="248.0" y="1200.0" type="line"/>
      <point x="448.0" y="1430.0" type="line"/>
      <point x="648.0" y="1200.0" type="line"/>
    </contour>
  </outline>
</glyph>
<glyph name="GraveAccent" format="2">
  <advance width="640.0"/>
  <unicode hex="0060"/>
  <anchor x="500.0" y="1635.0" name="U"/>
  <outline>
    <contour>
      <point x="0.0" y="1600.0" type="line"/>
      <point x="400.0" y="1200.0" type="line"/>
      <point x="640.0" y="1200.0" type="line"/>
      <point x="350.0" y="1600.0" type="line"/>
    </contour>
  </outline>
</glyph>
<glyph name="LtnSmA" format="2">
  <advance width="1205.0"/>
  <unicode hex="0061"/>
  <note>
GlyphNote A
</note>
  <anchor x="985.0" y="0.0" name="H"/>
  <anchor x="610.0" y="-100.0" name="L"/>
  <anchor x="1185.0" y="0.0" name="O"/>
  <anchor x="1145.0" y="1000.0" name="R"/>
  <anchor x="610.0" y="1100.0" name="U"/>
  <outline>
    <contour>
      <point x="1120.0" y="0.0" type="line"/>
      <point x="1078.0" y="112.0"/>
      <point x="1050.0" y="226.0"/>
      <point x="1050.0" y="370.0" type="curve"/>
      <point x="1050.0" y="760.0" type="line"/>
      <point x="1050.0" y="919.0"/>
      <point x="877.0" y="1040.0"/>
      <point x="615.0" y="1040.0" type="curve" smooth="yes"/>
      <point x="446.0" y="1040.0"/>
      <point x="330.0" y="994.0"/>
      <point x="216.0" y="950.0" type="curve"/>
      <point x="210.0" y="868.0"/>
      <point x="207.0" y="735.0"/>
      <point x="206.0" y="691.0" type="curve"/>
      <point x="323.0" y="773.0"/>
      <point x="424.0" y="816.0"/>
      <point x="530.0" y="816.0" type="curve" smooth="yes"/>
      <point x="680.0" y="816.0"/>
      <point x="770.0" y="785.0"/>
      <point x="770.0" y="710.0" type="curve" smooth="yes"/>
      <point x="770.0" y="660.0" type="line"/>
      <point x="729.0" y="659.0"/>
      <point x="569.0" y="649.0"/>
      <point x="500.0" y="642.0" type="curve" smooth="yes"/>
      <point x="191.0" y="612.0"/>
      <point x="100.0" y="438.0"/>
      <point x="100.0" y="285.0" type="curve" smooth="yes"/>
      <point x="100.0" y="121.0"/>
      <point x="245.0" y="-25.0"/>
      <point x="445.0" y="-25.0" type="curve" smooth="yes"/>
      <point x="562.0" y="-25.0"/>
      <point x="688.0" y="23.0"/>
      <point x="800.0" y="135.0" type="curve"/>
      <point x="814.0" y="79.0"/>
      <point x="838.0" y="28.0"/>
      <point x="850.0" y="0.0" type="curve"/>
    </contour>
    <contour>
      <point x="770.0" y="355.0" type="line"/>
      <point x="674.0" y="225.0"/>
      <point x="600.0" y="205.0"/>
      <point x="518.0" y="205.0" type="curve" smooth="yes"/>
      <point x="436.0" y="205.0"/>
      <point x="380.0" y="256.0"/>
      <point x="380.0" y="320.0" type="curve" smooth="yes"/>
      <point x="380.0" y="386.0"/>
      <point x="422.0" y="442.0"/>
      <point x="560.0" y="457.0" type="curve" smooth="yes"/>
      <point x="611.0" y="463.0"/>
      <point x="730.0" y="474.0"/>
      <point x="770.0" y="475.0" type="curve"/>
    </contour>
  </outline>
</glyph>
<glyph name="LtnSmB" format="2">
  <advance width="1215.0"/>
  <unicode hex="0062"/>
  <anchor x="610.0" y="0.0" name="H"/>
  <anchor x="610.0" y="-100.0" name="L"/>
  <anchor x="1215.0" y="1000.0" name="R"/>
  <anchor x="610.0" y="1635.0" name="U"/>
  <outline>
    <contour>
      <point x="120.0" y="1600.0" type="line"/>
      <point x="135.0" y="1488.0"/>
      <point x="135.0" y="1273.0"/>
      <point x="135.0" y="1130.0" type="curve" smooth="yes"/>
      <point x="135.0" y="936.0"/>
      <point x="135.0" y="228.0"/>
      <point x="135.0" y="65.0" type="curve"/>
      <point x="286.0" y="26.0"/>
      <point x="457.0" y="-25.0"/>
      <point x="650.0" y="-25.0" type="curve" smooth="yes"/>
      <point x="939.0" y="-25.0"/>
      <point x="1125.0" y="197.0"/>
      <point x="1125.0" y="540.0" type="curve" smooth="yes"/>
      <point x="1125.0" y="832.0"/>
      <point x="986.0" y="1040.0"/>
      <point x="789.0" y="1040.0" type="curve" smooth="yes"/>
      <point x="626.0" y="1040.0"/>
      <point x="505.0" y="956.0"/>
      <point x="415.0" y="845.0" type="curve"/>
      <point x="415.0" y="934.0"/>
      <point x="415.0" y="1600.0"/>
      <point x="415.0" y="1600.0" type="curve"/>
    </contour>
    <contour>
      <point x="415.0" y="585.0" type="line"/>
      <point x="471.0" y="709.0"/>
      <point x="580.0" y="795.0"/>
      <point x="683.0" y="795.0" type="curve" smooth="yes"/>
      <point x="793.0" y="795.0"/>
      <point x="855.0" y="684.0"/>
      <point x="855.0" y="505.0" type="curve" smooth="yes"/>
      <point x="855.0" y="317.0"/>
      <point x="750.0" y="190.0"/>
      <point x="605.0" y="190.0" type="curve" smooth="yes"/>
      <point x="538.0" y="190.0"/>
      <point x="492.0" y="204.0"/>
      <point x="415.0" y="240.0" type="curve"/>
    </contour>
  </outline>
</glyph>
<glyph name="LtnSmC" format="2">
  <advance width="1022.0"/>
  <unicode hex="0063"/>
  <anchor x="555.0" y="0.0" name="H"/>
  <anchor x="575.0" y="-100.0" name="L"/>
  <anchor x="1020.0" y="1000.0" name="R"/>
  <anchor x="575.0" y="1100.0" name="U"/>
  <outline>
    <contour>
      <point x="922.0" y="969.0" type="line"/>
      <point x="849.0" y="1007.0"/>
      <point x="744.0" y="1040.0"/>
      <point x="612.0" y="1040.0" type="curve" smooth="yes"/>
      <point x="295.0" y="1040.0"/>
      <point x="90.0" y="802.0"/>
      <point x="90.0" y="490.0" type="curve" smooth="yes"/>
      <point x="90.0" y="161.0"/>
      <point x="309.0" y="-25.0"/>
      <point x="578.0" y="-25.0" type="curve" smooth="yes"/>
      <point x="727.0" y="-25.0"/>
      <point x="831.0" y="8.0"/>
      <point x="932.0" y="70.0" type="curve"/>
      <point x="902.0" y="314.0" type="line"/>
      <point x="815.0" y="245.0"/>
      <point x="737.0" y="205.0"/>
      <point x="617.0" y="205.0" type="curve" smooth="yes"/>
      <point x="467.0" y="205.0"/>
      <point x="370.0" y="324.0"/>
      <point x="370.0" y="500.0" type="curve" smooth="yes"/>
      <point x="370.0" y="694.0"/>
      <point x="478.0" y="810.0"/>
      <point x="617.0" y="810.0" type="curve" smooth="yes"/>
      <point x="720.0" y="810.0"/>
      <point x="788.0" y="779.0"/>
      <point x="878.0" y="717.0" type="curve"/>
    </contour>
  </outline>
</glyph>
<glyph name="LtnSmD" format="2">
  <advance width="1265.0"/>
  <unicode hex="0064"/>
  <anchor x="595.0" y="0.0" name="H"/>
  <anchor x="595.0" y="-100.0" name="L"/>
  <anchor x="1285.0" y="1000.0" name="R"/>
  <anchor x="610.0" y="1635.0" name="U"/>
  <outline>
    <contour>
      <point x="1115.0" y="1600.0" type="line"/>
      <point x="810.0" y="1600.0" type="line"/>
      <point x="829.0" y="1516.0"/>
      <point x="835.0" y="1395.0"/>
      <point x="835.0" y="1235.0" type="curve" smooth="yes"/>
      <point x="835.0" y="955.0" type="line"/>
      <point x="763.0" y="999.0"/>
      <point x="669.0" y="1040.0"/>
      <point x="590.0" y="1040.0" type="curve" smooth="yes"/>
      <point x="319.0" y="1040.0"/>
      <point x="100.0" y="814.0"/>
      <point x="100.0" y="460.0" type="curve" smooth="yes"/>
      <point x="100.0" y="167.0"/>
      <point x="268.0" y="-25.0"/>
      <point x="515.0" y="-25.0" type="curve" smooth="yes"/>
      <point x="654.0" y="-25.0"/>
      <point x="770.0" y="47.0"/>
      <point x="860.0" y="175.0" type="curve"/>
      <point x="877.0" y="105.0"/>
      <point x="900.0" y="32.0"/>
      <point x="915.0" y="0.0" type="curve"/>
      <point x="1190.0" y="0.0" type="line"/>
      <point x="1147.0" y="112.0"/>
      <point x="1115.0" y="278.0"/>
      <point x="1115.0" y="530.0" type="curve" smooth="yes"/>
    </contour>
    <contour>
      <point x="835.0" y="400.0" type="line"/>
      <point x="787.0" y="300.0"/>
      <point x="676.0" y="200.0"/>
      <point x="570.0" y="200.0" type="curve" smooth="yes"/>
      <point x="443.0" y="200.0"/>
      <point x="380.0" y="300.0"/>
      <point x="380.0" y="490.0" type="curve" smooth="yes"/>
      <point x="380.0" y="685.0"/>
      <point x="485.0" y="800.0"/>
      <point x="590.0" y="800.0" type="curve" smooth="yes"/>
      <point x="683.0" y="800.0"/>
      <point x="743.0" y="783.0"/>
      <point x="835.0" y="738.0" type="curve"/>
    </contour>
  </outline>
</glyph>
<glyph name="LtnSmE" format="2">
  <advance width="1110"/>
  <unicode hex="0065"/>
  <anchor x="569" y="0" name="H"/>
  <anchor x="589" y="-100" name="L"/>
  <anchor x="900" y="0" name="O"/>
  <anchor x="1130" y="1000" name="R"/>
  <anchor x="537" y="1100" name="U"/>
  <outline>
    <contour>
      <point x="1010" y="450" type="line"/>
      <point x="1010" y="469"/>
      <point x="1009" y="513"/>
      <point x="1009" y="532" type="curve" smooth="yes"/>
      <point x="1009" y="782"/>
      <point x="924" y="1040"/>
      <point x="589" y="1040" type="curve" smooth="yes"/>
      <point x="281" y="1040"/>
      <point x="90" y="826"/>
      <point x="90" y="495" type="curve" smooth="yes"/>
      <point x="90" y="155"/>
      <point x="324" y="-25"/>
      <point x="589" y="-25" type="curve" smooth="yes"/>
      <point x="745" y="-25"/>
      <point x="871" y="2"/>
      <point x="1015" y="75" type="curve"/>
      <point x="994" y="306" type="line"/>
      <point x="870" y="232"/>
      <point x="745" y="205"/>
      <point x="614" y="205" type="curve" smooth="yes"/>
      <point x="448" y="205"/>
      <point x="362" y="293"/>
      <point x="362" y="505" type="curve" smooth="yes"/>
      <point x="362" y="739"/>
      <point x="431" y="830"/>
      <point x="575" y="830" type="curve" smooth="yes"/>
      <point x="693" y="830"/>
      <point x="755" y="770"/>
      <point x="755" y="630" type="curve"/>
      <point x="242" y="630" type="line"/>
      <point x="242" y="450" type="line"/>
    </contour>
  </outline>
</glyph>
<glyph name="LtnSmF" format="2">
  <advance width="800.0"/>
  <unicode hex="0066"/>
  <anchor x="380.0" y="0.0" name="H"/>
  <anchor x="400.0" y="-100.0" name="L"/>
  <anchor x="600.0" y="1635.0" name="U"/>
  <outline>
    <contour>
      <point x="30.0" y="805.0" type="line"/>
      <point x="230.0" y="805.0" type="line"/>
      <point x="230.0" y="0.0" type="line"/>
      <point x="540.0" y="0.0" type="line"/>
      <point x="518.0" y="105.0"/>
      <point x="510.0" y="300.0"/>
      <point x="510.0" y="494.0" type="curve" smooth="yes"/>
      <point x="510.0" y="805.0" type="line"/>
      <point x="765.0" y="805.0" type="line"/>
      <point x="765.0" y="1005.0" type="line"/>
      <point x="510.0" y="1005.0" type="line"/>
      <point x="510.0" y="1159.0" type="line" smooth="yes"/>
      <point x="510.0" y="1322.0"/>
      <point x="552.0" y="1387.0"/>
      <point x="648.0" y="1387.0" type="curve" smooth="yes"/>
      <point x="697.0" y="1387.0"/>
      <point x="765.0" y="1362.0"/>
      <point x="808.0" y="1322.0" type="curve"/>
      <point x="865.0" y="1550.0" type="line"/>
      <point x="806.0" y="1588.0"/>
      <point x="699.0" y="1620.0"/>
      <point x="625.0" y="1620.0" type="curve" smooth="yes"/>
      <point x="378.0" y="1620.0"/>
      <point x="230.0" y="1470.0"/>
      <point x="230.0" y="1170.0" type="curve" smooth="yes"/>
      <point x="230.0" y="1005.0" type="line"/>
      <point x="30.0" y="1005.0" type="line"/>
    </contour>
  </outline>
</glyph>
<glyph name="LtnSmG" format="2">
  <advance width="1170.0"/>
  <unicode hex="0067"/>
  <anchor x="597.0" y="-465.0" name="H"/>
  <anchor x="597.0" y="-535.0" name="L"/>
  <anchor x="1187.0" y="1000.0" name="R"/>
  <anchor x="567.0" y="1100.0" name="U"/>
  <outline>
    <contour>
      <point x="352.0" y="395.0" type="line"/>
      <point x="256.0" y="357.0"/>
      <point x="202.0" y="275.0"/>
      <point x="202.0" y="215.0" type="curve" smooth="yes"/>
      <point x="202.0" y="113.0"/>
      <point x="280.0" y="12.0"/>
      <point x="547.0" y="-23.0" type="curve" smooth="yes"/>
      <point x="797.0" y="-50.0"/>
      <point x="870.0" y="-99.0"/>
      <point x="870.0" y="-170.0" type="curve" smooth="yes"/>
      <point x="870.0" y="-229.0"/>
      <point x="748.0" y="-302.0"/>
      <point x="602.0" y="-302.0" type="curve" smooth="yes"/>
      <point x="418.0" y="-302.0"/>
      <point x="330.0" y="-235.0"/>
      <point x="330.0" y="-180.0" type="curve" smooth="yes"/>
      <point x="330.0" y="-121.0"/>
      <point x="357.0" y="-56.0"/>
      <point x="562.0" y="20.0" type="curve"/>
      <point x="554.0" y="49.0"/>
      <point x="322.0" y="75.0"/>
      <point x="322.0" y="75.0" type="curve"/>
      <point x="138.0" y="2.0"/>
      <point x="50.0" y="-89.0"/>
      <point x="50.0" y="-200.0" type="curve" smooth="yes"/>
      <point x="50.0" y="-409.0"/>
      <point x="341.0" y="-505.0"/>
      <point x="587.0" y="-505.0" type="curve" smooth="yes"/>
      <point x="843.0" y="-505.0"/>
      <point x="1150.0" y="-375.0"/>
      <point x="1150.0" y="-160.0" type="curve" smooth="yes"/>
      <point x="1150.0" y="13.0"/>
      <point x="1049.0" y="125.0"/>
      <point x="752.0" y="165.0" type="curve" smooth="yes"/>
      <point x="497.0" y="191.0"/>
      <point x="433.0" y="216.0"/>
      <point x="433.0" y="255.0" type="curve" smooth="yes"/>
      <point x="433.0" y="285.0"/>
      <point x="472.0" y="322.0"/>
      <point x="588.0" y="350.0" type="curve"/>
    </contour>
    <contour>
      <point x="1102.0" y="1040.0" type="line"/>
      <point x="1003.0" y="1033.0"/>
      <point x="871.0" y="997.0"/>
      <point x="782.0" y="940.0" type="curve"/>
      <point x="847.0" y="770.0" type="line"/>
      <point x="939.0" y="808.0"/>
      <point x="1019.0" y="823.0"/>
      <point x="1092.0" y="825.0" type="curve"/>
    </contour>
    <contour>
      <point x="122.0" y="670.0" type="curve" smooth="yes"/>
      <point x="122.0" y="455.0"/>
      <point x="316.0" y="305.0"/>
      <point x="567.0" y="305.0" type="curve" smooth="yes"/>
      <point x="820.0" y="305.0"/>
      <point x="1012.0" y="465.0"/>
      <point x="1012.0" y="680.0" type="curve" smooth="yes"/>
      <point x="1012.0" y="884.0"/>
      <point x="820.0" y="1040.0"/>
      <point x="567.0" y="1040.0" type="curve" smooth="yes"/>
      <point x="316.0" y="1040.0"/>
      <point x="122.0" y="874.0"/>
    </contour>
    <contour>
      <point x="377.0" y="680.0" type="curve" smooth="yes"/>
      <point x="377.0" y="770.0"/>
      <point x="457.0" y="847.0"/>
      <point x="567.0" y="847.0" type="curve" smooth="yes"/>
      <point x="678.0" y="847.0"/>
      <point x="757.0" y="770.0"/>
      <point x="757.0" y="680.0" type="curve" smooth="yes"/>
      <point x="757.0" y="578.0"/>
      <point x="678.0" y="501.0"/>
      <point x="567.0" y="501.0" type="curve" smooth="yes"/>
      <point x="457.0" y="501.0"/>
      <point x="377.0" y="578.0"/>
    </contour>
  </outline>
</glyph>
<glyph name="LtnSmH" format="2">
  <advance width="1235.0"/>
  <unicode hex="0068"/>
  <anchor x="280.0" y="0.0" name="H"/>
  <anchor x="620.0" y="-100.0" name="L"/>
  <anchor x="620.0" y="1635.0" name="U"/>
  <outline>
    <contour>
      <point x="415.0" y="580.0" type="line"/>
      <point x="450.0" y="683.0"/>
      <point x="560.0" y="795.0"/>
      <point x="675.0" y="795.0" type="curve" smooth="yes"/>
      <point x="782.0" y="795.0"/>
      <point x="830.0" y="744.0"/>
      <point x="830.0" y="550.0" type="curve" smooth="yes"/>
      <point x="830.0" y="413.0"/>
      <point x="830.0" y="0.0"/>
      <point x="830.0" y="0.0" type="curve"/>
      <point x="1110.0" y="0.0" type="line"/>
      <point x="1110.0" y="0.0"/>
      <point x="1110.0" y="459.0"/>
      <point x="1110.0" y="625.0" type="curve" smooth="yes"/>
      <point x="1110.0" y="900.0"/>
      <point x="1008.0" y="1040.0"/>
      <point x="805.0" y="1040.0" type="curve" smooth="yes"/>
      <point x="662.0" y="1040.0"/>
      <point x="513.0" y="976.0"/>
      <point x="415.0" y="850.0" type="curve"/>
      <point x="415.0" y="894.0"/>
      <point x="415.0" y="1600.0"/>
      <point x="415.0" y="1600.0" type="curve"/>
      <point x="120.0" y="1600.0" type="line"/>
      <point x="135.0" y="1514.0"/>
      <point x="135.0" y="1345.0"/>
      <point x="135.0" y="1130.0" type="curve" smooth="yes"/>
      <point x="135.0" y="935.0"/>
      <point x="135.0" y="0.0"/>
      <point x="135.0" y="0.0" type="curve"/>
      <point x="415.0" y="0.0" type="line"/>
    </contour>
  </outline>
</glyph>
<glyph name="LtnSmI" format="2">
  <advance width="640"/>
  <unicode hex="0069"/>
  <anchor x="320" y="0" name="H"/>
  <anchor x="320" y="-100" name="L"/>
  <anchor x="580" y="0" name="O"/>
  <anchor x="640" y="1000" name="R"/>
  <anchor x="320" y="1100" name="U"/>
  <outline>
    <contour>
      <point x="165" y="1020" type="line"/>
      <point x="178" y="915"/>
      <point x="180" y="725"/>
      <point x="180" y="530" type="curve" smooth="yes"/>
      <point x="180" y="336"/>
      <point x="180" y="0"/>
      <point x="180" y="0" type="curve"/>
      <point x="480" y="0" type="line"/>
      <point x="467" y="107"/>
      <point x="460" y="346"/>
      <point x="460" y="475" type="curve" smooth="yes"/>
      <point x="460" y="558"/>
      <point x="460" y="1020"/>
      <point x="460" y="1020" type="curve"/>
    </contour>
    <contour>
      <point x="145" y="1385" type="curve" smooth="yes"/>
      <point x="145" y="1281"/>
      <point x="219" y="1210"/>
      <point x="320" y="1210" type="curve" smooth="yes"/>
      <point x="422" y="1210"/>
      <point x="495" y="1281"/>
      <point x="495" y="1385" type="curve" smooth="yes"/>
      <point x="495" y="1487"/>
      <point x="422" y="1560"/>
      <point x="320" y="1560" type="curve" smooth="yes"/>
      <point x="219" y="1560"/>
      <point x="145" y="1487"/>
    </contour>
  </outline>
</glyph>
<glyph name="LtnSmJ" format="2">
  <advance width="670.0"/>
  <unicode hex="006A"/>
  <anchor x="140.0" y="-500.0" name="L"/>
  <anchor x="355.0" y="1100.0" name="U"/>
  <outline>
    <contour>
      <point x="185.0" y="1385.0" type="curve" smooth="yes"/>
      <point x="185.0" y="1281.0"/>
      <point x="259.0" y="1210.0"/>
      <point x="360.0" y="1210.0" type="curve" smooth="yes"/>
      <point x="462.0" y="1210.0"/>
      <point x="535.0" y="1281.0"/>
      <point x="535.0" y="1385.0" type="curve" smooth="yes"/>
      <point x="535.0" y="1487.0"/>
      <point x="462.0" y="1560.0"/>
      <point x="360.0" y="1560.0" type="curve" smooth="yes"/>
      <point x="259.0" y="1560.0"/>
      <point x="185.0" y="1487.0"/>
    </contour>
    <contour>
      <point x="500.0" y="1020.0" type="line"/>
      <point x="205.0" y="1020.0" type="line"/>
      <point x="218.0" y="915.0"/>
      <point x="220.0" y="725.0"/>
      <point x="220.0" y="530.0" type="curve"/>
      <point x="220.0" y="20.0" type="line"/>
      <point x="220.0" y="-150.0"/>
      <point x="165.0" y="-232.0"/>
      <point x="48.0" y="-232.0" type="curve" smooth="yes"/>
      <point x="-20.0" y="-232.0"/>
      <point x="-101.0" y="-195.0"/>
      <point x="-145.0" y="-152.0" type="curve"/>
      <point x="-190.0" y="-389.0" type="line"/>
      <point x="-148.0" y="-421.0"/>
      <point x="-37.0" y="-470.0"/>
      <point x="56.0" y="-470.0" type="curve" smooth="yes"/>
      <point x="306.0" y="-470.0"/>
      <point x="500.0" y="-348.0"/>
      <point x="500.0" y="25.0" type="curve" smooth="yes"/>
    </contour>
  </outline>
</glyph>
<glyph name="LtnSmK" format="2">
  <advance width="1138.0"/>
  <unicode hex="006B"/>
  <anchor x="940.0" y="0.0" name="H"/>
  <anchor x="585.0" y="-100.0" name="L"/>
  <anchor x="1140.0" y="1000.0" name="R"/>
  <anchor x="595.0" y="1635.0" name="U"/>
  <outline>
    <contour>
      <point x="415.0" y="0.0" type="line"/>
      <point x="415.0" y="1600.0" type="line"/>
      <point x="120.0" y="1600.0" type="line"/>
      <point x="135.0" y="1514.0"/>
      <point x="135.0" y="1345.0"/>
      <point x="135.0" y="1130.0" type="curve" smooth="yes"/>
      <point x="135.0" y="934.0"/>
      <point x="135.0" y="0.0"/>
      <point x="135.0" y="0.0" type="curve"/>
    </contour>
    <contour>
      <point x="723.0" y="1020.0" type="line"/>
      <point x="353.0" y="570.0" type="line"/>
      <point x="572.0" y="528.0" type="line"/>
      <point x="1098.0" y="1020.0" type="line"/>
    </contour>
    <contour>
      <point x="350.0" y="570.0" type="line"/>
      <point x="761.0" y="0.0" type="line"/>
      <point x="1128.0" y="0.0" type="line"/>
      <point x="540.0" y="664.0" type="line"/>
    </contour>
  </outline>
</glyph>
<glyph name="LtnSmL" format="2">
  <advance width="640.0"/>
  <unicode hex="006C"/>
  <anchor x="335.0" y="0.0" name="H"/>
  <anchor x="335.0" y="-100.0" name="L"/>
  <anchor x="660.0" y="1000.0" name="R"/>
  <anchor x="320.0" y="1635.0" name="U"/>
  <outline>
    <contour>
      <point x="460.0" y="1600.0" type="line"/>
      <point x="160.0" y="1600.0" type="line"/>
      <point x="173.0" y="1485.0"/>
      <point x="180.0" y="1324.0"/>
      <point x="180.0" y="1130.0" type="curve" smooth="yes"/>
      <point x="180.0" y="0.0" type="line"/>
      <point x="480.0" y="0.0" type="line"/>
      <point x="467.0" y="109.0"/>
      <point x="460.0" y="346.0"/>
      <point x="460.0" y="475.0" type="curve" smooth="yes"/>
    </contour>
  </outline>
</glyph>
<glyph name="LtnSmM" format="2">
  <advance width="1760.0"/>
  <unicode hex="006D"/>
  <anchor x="890.0" y="0.0" name="H"/>
  <anchor x="890.0" y="-100.0" name="L"/>
  <anchor x="890.0" y="1100.0" name="U"/>
  <outline>
    <contour>
      <point x="115.0" y="1020.0" type="line"/>
      <point x="136.0" y="951.0"/>
      <point x="165.0" y="811.0"/>
      <point x="165.0" y="615.0" type="curve" smooth="yes"/>
      <point x="165.0" y="0.0" type="line"/>
      <point x="445.0" y="0.0" type="line"/>
      <point x="445.0" y="640.0" type="line"/>
      <point x="484.0" y="731.0"/>
      <point x="560.0" y="795.0"/>
      <point x="635.0" y="795.0" type="curve" smooth="yes"/>
      <point x="723.0" y="795.0"/>
      <point x="750.0" y="759.0"/>
      <point x="750.0" y="570.0" type="curve" smooth="yes"/>
      <point x="750.0" y="0.0" type="line"/>
      <point x="1030.0" y="0.0" type="line"/>
      <point x="1030.0" y="660.0" type="line"/>
      <point x="1073.0" y="742.0"/>
      <point x="1147.0" y="795.0"/>
      <point x="1220.0" y="795.0" type="curve" smooth="yes"/>
      <point x="1310.0" y="795.0"/>
      <point x="1335.0" y="751.0"/>
      <point x="1335.0" y="550.0" type="curve" smooth="yes"/>
      <point x="1335.0" y="0.0" type="line"/>
      <point x="1615.0" y="0.0" type="line"/>
      <point x="1615.0" y="660.0" type="line" smooth="yes"/>
      <point x="1615.0" y="907.0"/>
      <point x="1548.0" y="1040.0"/>
      <point x="1345.0" y="1040.0" type="curve" smooth="yes"/>
      <point x="1240.0" y="1040.0"/>
      <point x="1131.0" y="1007.0"/>
      <point x="1006.0" y="872.0" type="curve"/>
      <point x="973.0" y="960.0"/>
      <point x="891.0" y="1040.0"/>
      <point x="760.0" y="1040.0" type="curve" smooth="yes"/>
      <point x="644.0" y="1040.0"/>
      <point x="544.0" y="1008.0"/>
      <point x="422.0" y="875.0" type="curve"/>
      <point x="412.0" y="920.0"/>
      <point x="397.0" y="981.0"/>
      <point x="375.0" y="1020.0" type="curve"/>
    </contour>
  </outline>
</glyph>
<glyph name="LtnSmN" format="2">
  <advance width="1245.0"/>
  <unicode hex="006E"/>
  <anchor x="620.0" y="0.0" name="H"/>
  <anchor x="620.0" y="-100.0" name="L"/>
  <anchor x="620.0" y="1100.0" name="U"/>
  <outline>
    <contour>
      <point x="1120.0" y="0.0" type="line"/>
      <point x="1120.0" y="0.0"/>
      <point x="1120.0" y="459.0"/>
      <point x="1120.0" y="625.0" type="curve" smooth="yes"/>
      <point x="1120.0" y="900.0"/>
      <point x="998.0" y="1040.0"/>
      <point x="795.0" y="1040.0" type="curve" smooth="yes"/>
      <point x="654.0" y="1040.0"/>
      <point x="537.0" y="980.0"/>
      <point x="410.0" y="835.0" type="curve"/>
      <point x="403.0" y="881.0"/>
      <point x="385.0" y="980.0"/>
      <point x="370.0" y="1020.0" type="curve"/>
      <point x="95.0" y="1020.0" type="line"/>
      <point x="117.0" y="951.0"/>
      <point x="145.0" y="811.0"/>
      <point x="145.0" y="615.0" type="curve" smooth="yes"/>
      <point x="145.0" y="420.0"/>
      <point x="145.0" y="0.0"/>
      <point x="145.0" y="0.0" type="curve"/>
      <point x="425.0" y="0.0" type="line"/>
      <point x="425.0" y="580.0" type="line"/>
      <point x="460.0" y="683.0"/>
      <point x="570.0" y="795.0"/>
      <point x="685.0" y="795.0" type="curve" smooth="yes"/>
      <point x="792.0" y="795.0"/>
      <point x="840.0" y="734.0"/>
      <point x="840.0" y="550.0" type="curve" smooth="yes"/>
      <point x="840.0" y="413.0"/>
      <point x="840.0" y="0.0"/>
      <point x="840.0" y="0.0" type="curve"/>
    </contour>
  </outline>
</glyph>
<glyph name="LtnSmO" format="2">
  <advance width="1160.0"/>
  <unicode hex="006F"/>
  <anchor x="578.0" y="0.0" name="H"/>
  <anchor x="580.0" y="-100.0" name="L"/>
  <anchor x="790.0" y="0.0" name="O"/>
  <anchor x="1160.0" y="1000.0" name="R"/>
  <anchor x="580.0" y="1100.0" name="U"/>
  <outline>
    <contour>
      <point x="90.0" y="507.0" type="curve" smooth="yes"/>
      <point x="90.0" y="163.0"/>
      <point x="288.0" y="-25.0"/>
      <point x="570.0" y="-25.0" type="curve" smooth="yes"/>
      <point x="840.0" y="-25.0"/>
      <point x="1070.0" y="163.0"/>
      <point x="1070.0" y="507.0" type="curve" smooth="yes"/>
      <point x="1070.0" y="851.0"/>
      <point x="873.0" y="1040.0"/>
      <point x="590.0" y="1040.0" type="curve" smooth="yes"/>
      <point x="320.0" y="1040.0"/>
      <point x="90.0" y="851.0"/>
    </contour>
    <contour>
      <point x="370.0" y="507.0" type="curve" smooth="yes"/>
      <point x="370.0" y="699.0"/>
      <point x="451.0" y="815.0"/>
      <point x="580.0" y="815.0" type="curve" smooth="yes"/>
      <point x="717.0" y="815.0"/>
      <point x="790.0" y="699.0"/>
      <point x="790.0" y="507.0" type="curve" smooth="yes"/>
      <point x="790.0" y="316.0"/>
      <point x="709.0" y="200.0"/>
      <point x="580.0" y="200.0" type="curve" smooth="yes"/>
      <point x="443.0" y="200.0"/>
      <point x="370.0" y="316.0"/>
    </contour>
  </outline>
</glyph>
<glyph name="LtnSmP" format="2">
  <advance width="1235.0"/>
  <unicode hex="0070"/>
  <anchor x="290.0" y="-435.0" name="H"/>
  <anchor x="640.0" y="-500.0" name="L"/>
  <anchor x="1235.0" y="1000.0" name="R"/>
  <anchor x="640.0" y="1100.0" name="U"/>
  <outline>
    <contour>
      <point x="450.0" y="-490.0" type="line"/>
      <point x="433.0" y="-405.0"/>
      <point x="425.0" y="-310.0"/>
      <point x="425.0" y="-150.0" type="curve" smooth="yes"/>
      <point x="425.0" y="-71.0"/>
      <point x="425.0" y="-41.0"/>
      <point x="425.0" y="65.0" type="curve"/>
      <point x="518.0" y="10.0"/>
      <point x="594.0" y="-25.0"/>
      <point x="699.0" y="-25.0" type="curve" smooth="yes"/>
      <point x="945.0" y="-25.0"/>
      <point x="1145.0" y="193.0"/>
      <point x="1145.0" y="535.0" type="curve" smooth="yes"/>
      <point x="1145.0" y="828.0"/>
      <point x="996.0" y="1040.0"/>
      <point x="773.0" y="1040.0" type="curve" smooth="yes"/>
      <point x="628.0" y="1040.0"/>
      <point x="502.0" y="962.0"/>
      <point x="410.0" y="850.0" type="curve"/>
      <point x="401.0" y="932.0"/>
      <point x="385.0" y="990.0"/>
      <point x="370.0" y="1020.0" type="curve"/>
      <point x="95.0" y="1020.0" type="line"/>
      <point x="140.0" y="907.0"/>
      <point x="145.0" y="734.0"/>
      <point x="145.0" y="485.0" type="curve" smooth="yes"/>
      <point x="145.0" y="291.0"/>
      <point x="145.0" y="-345.0"/>
      <point x="145.0" y="-490.0" type="curve"/>
    </contour>
    <contour>
      <point x="633.0" y="206.0" type="curve" smooth="yes"/>
      <point x="564.0" y="206.0"/>
      <point x="527.0" y="225.0"/>
      <point x="425.0" y="300.0" type="curve"/>
      <point x="425.0" y="390.0"/>
      <point x="425.0" y="507.0"/>
      <point x="425.0" y="585.0" type="curve"/>
      <point x="482.0" y="726.0"/>
      <point x="583.0" y="802.0"/>
      <point x="672.0" y="802.0" type="curve" smooth="yes"/>
      <point x="793.0" y="802.0"/>
      <point x="865.0" y="686.0"/>
      <point x="865.0" y="505.0" type="curve" smooth="yes"/>
      <point x="865.0" y="320.0"/>
      <point x="755.0" y="206.0"/>
    </contour>
  </outline>
</glyph>
<glyph name="LtnSmQ" format="2">
  <advance width="1210.0"/>
  <unicode hex="0071"/>
  <anchor x="600.0" y="-500.0" name="L"/>
  <anchor x="1210.0" y="1000.0" name="R"/>
  <anchor x="600.0" y="1100.0" name="U"/>
  <outline>
    <contour>
      <point x="790.0" y="-490.0" type="line"/>
      <point x="1095.0" y="-490.0" type="line"/>
      <point x="1078.0" y="-405.0"/>
      <point x="1070.0" y="-310.0"/>
      <point x="1070.0" y="-150.0" type="curve" smooth="yes"/>
      <point x="1070.0" y="-26.0"/>
      <point x="1070.0" y="965.0"/>
      <point x="1070.0" y="965.0" type="curve"/>
      <point x="934.0" y="1001.0"/>
      <point x="773.0" y="1040.0"/>
      <point x="620.0" y="1040.0" type="curve" smooth="yes"/>
      <point x="255.0" y="1040.0"/>
      <point x="100.0" y="742.0"/>
      <point x="100.0" y="435.0" type="curve" smooth="yes"/>
      <point x="100.0" y="117.0"/>
      <point x="316.0" y="-25.0"/>
      <point x="500.0" y="-25.0" type="curve" smooth="yes"/>
      <point x="593.0" y="-25.0"/>
      <point x="686.0" y="14.0"/>
      <point x="790.0" y="120.0" type="curve"/>
    </contour>
    <contour>
      <point x="790.0" y="368.0" type="line"/>
      <point x="727.0" y="258.0"/>
      <point x="650.0" y="203.0"/>
      <point x="580.0" y="203.0" type="curve" smooth="yes"/>
      <point x="475.0" y="203.0"/>
      <point x="380.0" y="287.0"/>
      <point x="380.0" y="485.0" type="curve" smooth="yes"/>
      <point x="380.0" y="641.0"/>
      <point x="456.0" y="802.0"/>
      <point x="655.0" y="802.0" type="curve" smooth="yes"/>
      <point x="696.0" y="802.0"/>
      <point x="749.0" y="789.0"/>
      <point x="790.0" y="770.0" type="curve"/>
    </contour>
  </outline>
</glyph>
<glyph name="LtnSmR" format="2">
  <advance width="995.0"/>
  <unicode hex="0072"/>
  <anchor x="285.0" y="0.0" name="H"/>
  <anchor x="275.0" y="-100.0" name="L"/>
  <anchor x="550.0" y="1100.0" name="U"/>
  <outline>
    <contour>
      <point x="425.0" y="0.0" type="line"/>
      <point x="425.0" y="530.0" type="line"/>
      <point x="460.0" y="654.0"/>
      <point x="570.0" y="781.0"/>
      <point x="637.0" y="781.0" type="curve" smooth="yes"/>
      <point x="722.0" y="781.0"/>
      <point x="755.0" y="721.0"/>
      <point x="762.0" y="630.0" type="curve"/>
      <point x="985.0" y="665.0" type="line"/>
      <point x="985.0" y="868.0"/>
      <point x="913.0" y="1040.0"/>
      <point x="725.0" y="1040.0" type="curve" smooth="yes"/>
      <point x="634.0" y="1040.0"/>
      <point x="507.0" y="964.0"/>
      <point x="410.0" y="825.0" type="curve"/>
      <point x="403.0" y="873.0"/>
      <point x="385.0" y="978.0"/>
      <point x="370.0" y="1020.0" type="curve"/>
      <point x="95.0" y="1020.0" type="line"/>
      <point x="117.0" y="951.0"/>
      <point x="145.0" y="811.0"/>
      <point x="145.0" y="615.0" type="curve" smooth="yes"/>
      <point x="145.0" y="0.0" type="line"/>
    </contour>
  </outline>
</glyph>
<glyph name="LtnSmS" format="2">
  <advance width="1035.0"/>
  <unicode hex="0073"/>
  <anchor x="515.0" y="0.0" name="H"/>
  <anchor x="515.0" y="-100.0" name="L"/>
  <anchor x="530.0" y="1100.0" name="U"/>
  <outline>
    <contour>
      <point x="905.0" y="960.0" type="line"/>
      <point x="827.0" y="998.0"/>
      <point x="708.0" y="1040.0"/>
      <point x="545.0" y="1040.0" type="curve" smooth="yes"/>
      <point x="202.0" y="1040.0"/>
      <point x="110.0" y="818.0"/>
      <point x="110.0" y="720.0" type="curve" smooth="yes"/>
      <point x="110.0" y="594.0"/>
      <point x="171.0" y="491.0"/>
      <point x="455.0" y="432.0" type="curve" smooth="yes"/>
      <point x="646.0" y="390.0"/>
      <point x="690.0" y="348.0"/>
      <point x="690.0" y="290.0" type="curve" smooth="yes"/>
      <point x="690.0" y="243.0"/>
      <point x="624.0" y="199.0"/>
      <point x="530.0" y="199.0" type="curve" smooth="yes"/>
      <point x="413.0" y="199.0"/>
      <point x="254.0" y="253.0"/>
      <point x="155.0" y="334.0" type="curve"/>
      <point x="100.0" y="90.0" type="line"/>
      <point x="187.0" y="28.0"/>
      <point x="346.0" y="-25.0"/>
      <point x="525.0" y="-25.0" type="curve" smooth="yes"/>
      <point x="768.0" y="-25.0"/>
      <point x="960.0" y="123.0"/>
      <point x="960.0" y="315.0" type="curve" smooth="yes"/>
      <point x="960.0" y="504.0"/>
      <point x="788.0" y="583.0"/>
      <point x="580.0" y="625.0" type="curve" smooth="yes"/>
      <point x="405.0" y="659.0"/>
      <point x="380.0" y="681.0"/>
      <point x="380.0" y="730.0" type="curve" smooth="yes"/>
      <point x="380.0" y="770.0"/>
      <point x="418.0" y="816.0"/>
      <point x="535.0" y="816.0" type="curve" smooth="yes"/>
      <point x="674.0" y="816.0"/>
      <point x="791.0" y="760.0"/>
      <point x="866.0" y="721.0" type="curve"/>
    </contour>
  </outline>
</glyph>
<glyph name="LtnSmT" format="2">
  <advance width="885.0"/>
  <unicode hex="0074"/>
  <anchor x="530.0" y="0.0" name="H"/>
  <anchor x="530.0" y="-100.0" name="L"/>
  <anchor x="885.0" y="1000.0" name="R"/>
  <anchor x="360.0" y="1360.0" name="U"/>
  <outline>
    <contour>
      <point x="220.0" y="270.0" type="line"/>
      <point x="220.0" y="39.0"/>
      <point x="374.0" y="-25.0"/>
      <point x="563.0" y="-25.0" type="curve" smooth="yes"/>
      <point x="635.0" y="-25.0"/>
      <point x="725.0" y="-3.0"/>
      <point x="820.0" y="57.0" type="curve"/>
      <point x="820.0" y="281.0" type="line"/>
      <point x="741.0" y="232.0"/>
      <point x="678.0" y="206.0"/>
      <point x="627.0" y="206.0" type="curve" smooth="yes"/>
      <point x="537.0" y="206.0"/>
      <point x="500.0" y="235.0"/>
      <point x="500.0" y="462.0" type="curve" smooth="yes"/>
      <point x="500.0" y="1320.0" type="line"/>
      <point x="220.0" y="1320.0" type="line"/>
    </contour>
    <contour>
      <point x="805.0" y="805.0" type="line"/>
      <point x="805.0" y="1005.0" type="line"/>
      <point x="30.0" y="1005.0" type="line"/>
      <point x="30.0" y="805.0" type="line"/>
    </contour>
  </outline>
</glyph>
<glyph name="LtnSmU" format="2">
  <advance width="1245.0"/>
  <unicode hex="0075"/>
  <anchor x="515.0" y="0.0" name="H"/>
  <anchor x="615.0" y="-100.0" name="L"/>
  <anchor x="690.0" y="0.0" name="O"/>
  <anchor x="1258.0" y="1000.0" name="R"/>
  <anchor x="615.0" y="1100.0" name="U"/>
  <outline>
    <contour>
      <point x="1160.0" y="0.0" type="line"/>
      <point x="1118.0" y="112.0"/>
      <point x="1095.0" y="256.0"/>
      <point x="1095.0" y="450.0" type="curve" smooth="yes"/>
      <point x="1095.0" y="646.0"/>
      <point x="1095.0" y="1020.0"/>
      <point x="1095.0" y="1020.0" type="curve"/>
      <point x="795.0" y="1020.0" type="line"/>
      <point x="813.0" y="898.0"/>
      <point x="815.0" y="832.0"/>
      <point x="815.0" y="700.0" type="curve" smooth="yes"/>
      <point x="815.0" y="418.0" type="line"/>
      <point x="774.0" y="326.0"/>
      <point x="651.0" y="206.0"/>
      <point x="560.0" y="206.0" type="curve" smooth="yes"/>
      <point x="458.0" y="206.0"/>
      <point x="425.0" y="284.0"/>
      <point x="425.0" y="465.0" type="curve" smooth="yes"/>
      <point x="425.0" y="603.0"/>
      <point x="425.0" y="1020.0"/>
      <point x="425.0" y="1020.0" type="curve"/>
      <point x="125.0" y="1020.0" type="line"/>
      <point x="143.0" y="900.0"/>
      <point x="145.0" y="827.0"/>
      <point x="145.0" y="700.0" type="curve" smooth="yes"/>
      <point x="145.0" y="681.0"/>
      <point x="145.0" y="424.0"/>
      <point x="145.0" y="405.0" type="curve" smooth="yes"/>
      <point x="145.0" y="120.0"/>
      <point x="250.0" y="-25.0"/>
      <point x="458.0" y="-25.0" type="curve" smooth="yes"/>
      <point x="595.0" y="-25.0"/>
      <point x="722.0" y="48.0"/>
      <point x="840.0" y="185.0" type="curve"/>
      <point x="850.0" y="116.0"/>
      <point x="876.0" y="43.0"/>
      <point x="895.0" y="0.0" type="curve"/>
    </contour>
  </outline>
</glyph>
<glyph name="LtnSmV" format="2">
  <advance width="1104.0"/>
  <unicode hex="0076"/>
  <anchor x="565.0" y="0.0" name="H"/>
  <anchor x="565.0" y="-100.0" name="L"/>
  <anchor x="750.0" y="0.0" name="O"/>
  <anchor x="565.0" y="1100.0" name="U"/>
  <outline>
    <contour>
      <point x="786.0" y="1020.0" type="line"/>
      <point x="556.0" y="290.0" type="line"/>
      <point x="322.0" y="1020.0" type="line"/>
      <point x="10.0" y="1020.0" type="line"/>
      <point x="65.0" y="905.0"/>
      <point x="133.0" y="746.0"/>
      <point x="165.0" y="665.0" type="curve" smooth="yes"/>
      <point x="227.0" y="510.0"/>
      <point x="430.0" y="0.0"/>
      <point x="430.0" y="0.0" type="curve"/>
      <point x="674.0" y="0.0" type="line"/>
      <point x="674.0" y="0.0"/>
      <point x="886.0" y="536.0"/>
      <point x="939.0" y="665.0" type="curve" smooth="yes"/>
      <point x="972.0" y="744.0"/>
      <point x="1037.0" y="905.0"/>
      <point x="1094.0" y="1020.0" type="curve"/>
    </contour>
  </outline>
</glyph>
<glyph name="LtnSmW" format="2">
  <advance width="1570.0"/>
  <unicode hex="0077"/>
  <anchor x="785.0" y="-100.0" name="L"/>
  <anchor x="785.0" y="1100.0" name="U"/>
  <outline>
    <contour>
      <point x="665.0" y="1020.0" type="line"/>
      <point x="480.0" y="285.0" type="line"/>
      <point x="323.0" y="1020.0" type="line"/>
      <point x="35.0" y="1020.0" type="line"/>
      <point x="82.0" y="867.0"/>
      <point x="110.0" y="771.0"/>
      <point x="140.0" y="665.0" type="curve" smooth="yes"/>
      <point x="325.0" y="0.0" type="line"/>
      <point x="615.0" y="0.0" type="line"/>
      <point x="785.0" y="695.0" type="line"/>
      <point x="955.0" y="0.0" type="line"/>
      <point x="1245.0" y="0.0" type="line"/>
      <point x="1430.0" y="665.0" type="line" smooth="yes"/>
      <point x="1464.0" y="785.0"/>
      <point x="1488.0" y="868.0"/>
      <point x="1535.0" y="1020.0" type="curve"/>
      <point x="1247.0" y="1020.0" type="line"/>
      <point x="1090.0" y="285.0" type="line"/>
      <point x="905.0" y="1020.0" type="line"/>
    </contour>
  </outline>
</glyph>
<glyph name="LtnSmX" format="2">
  <advance width="1185.0"/>
  <unicode hex="0078"/>
  <anchor x="960.0" y="0.0" name="H"/>
  <anchor x="590.0" y="-100.0" name="L"/>
  <anchor x="615.0" y="1100.0" name="U"/>
  <outline>
    <contour>
      <point x="815.0" y="0.0" type="line"/>
      <point x="1145.0" y="0.0" type="line"/>
      <point x="1037.0" y="129.0"/>
      <point x="989.0" y="190.0"/>
      <point x="930.0" y="270.0" type="curve" smooth="yes"/>
      <point x="380.0" y="1020.0" type="line"/>
      <point x="50.0" y="1020.0" type="line"/>
      <point x="158.0" y="887.0"/>
      <point x="192.0" y="842.0"/>
      <point x="260.0" y="750.0" type="curve" smooth="yes"/>
    </contour>
    <contour>
      <point x="499.0" y="616.0" type="line"/>
      <point x="245.0" y="270.0" type="line" smooth="yes"/>
      <point x="195.0" y="201.0"/>
      <point x="150.0" y="143.0"/>
      <point x="40.0" y="0.0" type="curve"/>
      <point x="345.0" y="0.0" type="line"/>
      <point x="584.0" y="359.0" type="line"/>
    </contour>
    <contour>
      <point x="675.0" y="405.0" type="line"/>
      <point x="925.0" y="750.0" type="line" smooth="yes"/>
      <point x="980.0" y="826.0"/>
      <point x="1027.0" y="886.0"/>
      <point x="1130.0" y="1020.0" type="curve"/>
      <point x="825.0" y="1020.0" type="line"/>
      <point x="595.0" y="668.0" type="line"/>
    </contour>
  </outline>
</glyph>
<glyph name="LtnSmY" format="2">
  <advance width="1100.0"/>
  <unicode hex="0079"/>
  <anchor x="845.0" y="-100.0" name="L"/>
  <anchor x="1155.0" y="1000.0" name="R"/>
  <anchor x="565.0" y="1100.0" name="U"/>
  <outline>
    <contour>
      <point x="945.0" y="665.0" type="line" smooth="yes"/>
      <point x="978.0" y="758.0"/>
      <point x="1021.0" y="865.0"/>
      <point x="1090.0" y="1020.0" type="curve"/>
      <point x="777.0" y="1020.0" type="line"/>
      <point x="777.0" y="1020.0"/>
      <point x="646.0" y="549.0"/>
      <point x="573.0" y="293.0" type="curve"/>
      <point x="333.0" y="1020.0" type="line"/>
      <point x="20.0" y="1020.0" type="line"/>
      <point x="97.0" y="864.0"/>
      <point x="144.0" y="757.0"/>
      <point x="180.0" y="665.0" type="curve" smooth="yes"/>
      <point x="445.0" y="-18.0" type="line"/>
      <point x="366.0" y="-209.0"/>
      <point x="304.0" y="-242.0"/>
      <point x="245.0" y="-242.0" type="curve" smooth="yes"/>
      <point x="179.0" y="-242.0"/>
      <point x="102.0" y="-202.0"/>
      <point x="60.0" y="-167.0" type="curve"/>
      <point x="-10.0" y="-385.0" type="line"/>
      <point x="63.0" y="-439.0"/>
      <point x="154.0" y="-470.0"/>
      <point x="245.0" y="-470.0" type="curve" smooth="yes"/>
      <point x="427.0" y="-470.0"/>
      <point x="565.0" y="-387.0"/>
      <point x="705.0" y="0.0" type="curve" smooth="yes"/>
    </contour>
  </outline>
</glyph>
<glyph name="LftCurlyBrac" format="2">
  <advance width="1040.0"/>
  <unicode hex="007B"/>
  <outline>
    <contour>
      <point x="895.0" y="-179.0" type="line"/>
      <point x="828.0" y="-160.0"/>
      <point x="704.0" y="-122.0"/>
      <point x="685.0" y="-100.0" type="curve" smooth="yes"/>
      <point x="650.0" y="-60.0"/>
      <point x="663.0" y="411.0"/>
      <point x="645.0" y="445.0" type="curve" smooth="yes"/>
      <point x="621.0" y="491.0"/>
      <point x="483.0" y="580.0"/>
      <point x="483.0" y="615.0" type="curve" smooth="yes"/>
      <point x="483.0" y="650.0"/>
      <point x="620.0" y="740.0"/>
      <point x="643.0" y="785.0" type="curve" smooth="yes"/>
      <point x="661.0" y="820.0"/>
      <point x="650.0" y="1289.0"/>
      <point x="685.0" y="1330.0" type="curve" smooth="yes"/>
      <point x="702.0" y="1351.0"/>
      <point x="807.0" y="1390.0"/>
      <point x="870.0" y="1409.0" type="curve"/>
      <point x="820.0" y="1640.0" type="line"/>
      <point x="692.0" y="1613.0"/>
      <point x="502.0" y="1562.0"/>
      <point x="455.0" y="1515.0" type="curve" smooth="yes"/>
      <point x="381.0" y="1442.0"/>
      <point x="392.0" y="852.0"/>
      <point x="370.0" y="820.0" type="curve" smooth="yes"/>
      <point x="340.0" y="777.0"/>
      <point x="170.0" y="670.0"/>
      <point x="170.0" y="615.0" type="curve" smooth="yes"/>
      <point x="170.0" y="560.0"/>
      <point x="340.0" y="453.0"/>
      <point x="370.0" y="410.0" type="curve" smooth="yes"/>
      <point x="392.0" y="378.0"/>
      <point x="380.0" y="-213.0"/>
      <point x="455.0" y="-285.0" type="curve" smooth="yes"/>
      <point x="505.0" y="-333.0"/>
      <point x="709.0" y="-383.0"/>
      <point x="845.0" y="-410.0" type="curve"/>
    </contour>
  </outline>
</glyph>
<glyph name="VertLine" format="2">
  <advance width="690.0"/>
  <unicode hex="007C"/>
  <outline>
    <contour>
      <point x="240.0" y="1600.0" type="line"/>
      <point x="240.0" y="-390.0" type="line"/>
      <point x="450.0" y="-390.0" type="line"/>
      <point x="450.0" y="1600.0" type="line"/>
    </contour>
  </outline>
</glyph>
<glyph name="RtCurlyBrac" format="2">
  <advance width="1040.0"/>
  <unicode hex="007D"/>
  <outline>
    <contour>
      <point x="180.0" y="-410.0" type="line"/>
      <point x="316.0" y="-383.0"/>
      <point x="520.0" y="-333.0"/>
      <point x="570.0" y="-285.0" type="curve" smooth="yes"/>
      <point x="645.0" y="-213.0"/>
      <point x="633.0" y="378.0"/>
      <point x="655.0" y="410.0" type="curve" smooth="yes"/>
      <point x="685.0" y="453.0"/>
      <point x="855.0" y="560.0"/>
      <point x="855.0" y="615.0" type="curve" smooth="yes"/>
      <point x="855.0" y="670.0"/>
      <point x="685.0" y="777.0"/>
      <point x="655.0" y="820.0" type="curve" smooth="yes"/>
      <point x="633.0" y="852.0"/>
      <point x="644.0" y="1442.0"/>
      <point x="570.0" y="1515.0" type="curve" smooth="yes"/>
      <point x="523.0" y="1562.0"/>
      <point x="333.0" y="1613.0"/>
      <point x="205.0" y="1640.0" type="curve"/>
      <point x="155.0" y="1409.0" type="line"/>
      <point x="218.0" y="1390.0"/>
      <point x="323.0" y="1351.0"/>
      <point x="340.0" y="1330.0" type="curve" smooth="yes"/>
      <point x="375.0" y="1289.0"/>
      <point x="364.0" y="820.0"/>
      <point x="382.0" y="785.0" type="curve" smooth="yes"/>
      <point x="405.0" y="740.0"/>
      <point x="542.0" y="650.0"/>
      <point x="542.0" y="615.0" type="curve" smooth="yes"/>
      <point x="542.0" y="580.0"/>
      <point x="404.0" y="491.0"/>
      <point x="380.0" y="445.0" type="curve" smooth="yes"/>
      <point x="362.0" y="411.0"/>
      <point x="375.0" y="-60.0"/>
      <point x="340.0" y="-100.0" type="curve" smooth="yes"/>
      <point x="321.0" y="-122.0"/>
      <point x="197.0" y="-160.0"/>
      <point x="130.0" y="-179.0" type="curve"/>
    </contour>
  </outline>
</glyph>
<glyph name="Tilde" format="2">
  <advance width="1115.0"/>
  <unicode hex="007E"/>
  <outline>
    <contour>
      <point x="165.0" y="345.0" type="line"/>
      <point x="170.0" y="394.0"/>
      <point x="202.0" y="435.0"/>
      <point x="280.0" y="435.0" type="curve" smooth="yes"/>
      <point x="435.0" y="435.0"/>
      <point x="615.0" y="330.0"/>
      <point x="825.0" y="330.0" type="curve" smooth="yes"/>
      <point x="984.0" y="330.0"/>
      <point x="1080.0" y="512.0"/>
      <point x="1080.0" y="640.0" type="curve"/>
      <point x="935.0" y="640.0" type="line"/>
      <point x="928.0" y="594.0"/>
      <point x="898.0" y="540.0"/>
      <point x="815.0" y="540.0" type="curve" smooth="yes"/>
      <point x="599.0" y="540.0"/>
      <point x="461.0" y="645.0"/>
      <point x="260.0" y="645.0" type="curve" smooth="yes"/>
      <point x="104.0" y="645.0"/>
      <point x="20.0" y="467.0"/>
      <point x="20.0" y="345.0" type="curve"/>
    </contour>
  </outline>
</glyph>
<glyph name="CombGrave" format="2">
  <unicode hex="0300"/>
  <anchor x="-590.0" y="1635.0" name="U"/>
  <anchor x="-630.0" y="1100.0" name="_U"/>
  <outline>
    <contour>
      <point x="-1050.0" y="1600.0" type="line"/>
      <point x="-650.0" y="1200.0" type="line"/>
      <point x="-410.0" y="1200.0" type="line"/>
      <point x="-700.0" y="1600.0" type="line"/>
    </contour>
  </outline>
</glyph>
<glyph name="CombAcute" format="2">
  <unicode hex="0301"/>
  <anchor x="-600.0" y="1635.0" name="U"/>
  <anchor x="-540.0" y="1100.0" name="_U"/>
  <outline>
    <contour>
      <point x="-470.0" y="1600.0" type="line"/>
      <point x="-760.0" y="1200.0" type="line"/>
      <point x="-520.0" y="1200.0" type="line"/>
      <point x="-120.0" y="1600.0" type="line"/>
    </contour>
  </outline>
</glyph>
<glyph name="CombCircum" format="2">
  <unicode hex="0302"/>
  <anchor x="-588.0" y="1635.0" name="U"/>
  <anchor x="-580.0" y="1100.0" name="_U"/>
  <outline>
    <contour>
      <point x="-140.0" y="1200.0" type="line"/>
      <point x="-430.0" y="1600.0" type="line"/>
      <point x="-730.0" y="1600.0" type="line"/>
      <point x="-1020.0" y="1200.0" type="line"/>
      <point x="-780.0" y="1200.0" type="line"/>
      <point x="-580.0" y="1430.0" type="line"/>
      <point x="-380.0" y="1200.0" type="line"/>
    </contour>
  </outline>
</glyph>
<glyph name="CombTilde" format="2">
  <unicode hex="0303"/>
  <anchor x="-580.0" y="1490.0" name="U"/>
  <anchor x="-580.0" y="1100.0" name="_U"/>
  <outline>
    <contour>
      <point x="-830.0" y="1190.0" type="line"/>
      <point x="-824.0" y="1232.0"/>
      <point x="-803.0" y="1280.0"/>
      <point x="-753.0" y="1280.0" type="curve" smooth="yes"/>
      <point x="-710.0" y="1280.0"/>
      <point x="-653.0" y="1264.0"/>
      <point x="-570.0" y="1229.0" type="curve" smooth="yes"/>
      <point x="-500.0" y="1199.0"/>
      <point x="-448.0" y="1180.0"/>
      <point x="-386.0" y="1180.0" type="curve" smooth="yes"/>
      <point x="-250.0" y="1180.0"/>
      <point x="-155.0" y="1307.0"/>
      <point x="-155.0" y="1480.0" type="curve"/>
      <point x="-310.0" y="1480.0" type="line"/>
      <point x="-318.0" y="1438.0"/>
      <point x="-340.0" y="1390.0"/>
      <point x="-387.0" y="1390.0" type="curve" smooth="yes"/>
      <point x="-435.0" y="1390.0"/>
      <point x="-472.0" y="1408.0"/>
      <point x="-550.0" y="1437.0" type="curve" smooth="yes"/>
      <point x="-629.0" y="1466.0"/>
      <point x="-695.0" y="1490.0"/>
      <point x="-760.0" y="1490.0" type="curve" smooth="yes"/>
      <point x="-892.0" y="1490.0"/>
      <point x="-985.0" y="1349.0"/>
      <point x="-985.0" y="1190.0" type="curve"/>
    </contour>
  </outline>
</glyph>
<glyph name="CombDiaer" format="2">
  <unicode hex="0308"/>
  <anchor x="-580.0" y="1585.0" name="U"/>
  <anchor x="-580.0" y="1100.0" name="_U"/>
  <outline>
    <contour>
      <point x="-510.0" y="1385.0" type="curve" smooth="yes"/>
      <point x="-510.0" y="1281.0"/>
      <point x="-436.0" y="1210.0"/>
      <point x="-335.0" y="1210.0" type="curve" smooth="yes"/>
      <point x="-233.0" y="1210.0"/>
      <point x="-160.0" y="1281.0"/>
      <point x="-160.0" y="1385.0" type="curve" smooth="yes"/>
      <point x="-160.0" y="1487.0"/>
      <point x="-233.0" y="1560.0"/>
      <point x="-335.0" y="1560.0" type="curve" smooth="yes"/>
      <point x="-436.0" y="1560.0"/>
      <point x="-510.0" y="1487.0"/>
    </contour>
    <contour>
      <point x="-1000.0" y="1385.0" type="curve" smooth="yes"/>
      <point x="-1000.0" y="1281.0"/>
      <point x="-926.0" y="1210.0"/>
      <point x="-825.0" y="1210.0" type="curve" smooth="yes"/>
      <point x="-723.0" y="1210.0"/>
      <point x="-650.0" y="1281.0"/>
      <point x="-650.0" y="1385.0" type="curve" smooth="yes"/>
      <point x="-650.0" y="1487.0"/>
      <point x="-723.0" y="1560.0"/>
      <point x="-825.0" y="1560.0" type="curve" smooth="yes"/>
      <point x="-926.0" y="1560.0"/>
      <point x="-1000.0" y="1487.0"/>
    </contour>
  </outline>
</glyph>
<glyph name="CombRingAbv" format="2">
  <unicode hex="030A"/>
  <anchor x="-570.0" y="1635.0" name="U"/>
  <anchor x="-572.0" y="1100.0" name="_U"/>
  <outline>
    <contour>
      <point x="-475.0" y="1400.0" type="curve" smooth="yes"/>
      <point x="-475.0" y="1345.0"/>
      <point x="-515.0" y="1305.0"/>
      <point x="-570.0" y="1305.0" type="curve" smooth="yes"/>
      <point x="-625.0" y="1305.0"/>
      <point x="-665.0" y="1345.0"/>
      <point x="-665.0" y="1400.0" type="curve" smooth="yes"/>
      <point x="-665.0" y="1455.0"/>
      <point x="-625.0" y="1495.0"/>
      <point x="-570.0" y="1495.0" type="curve" smooth="yes"/>
      <point x="-515.0" y="1495.0"/>
      <point x="-475.0" y="1455.0"/>
    </contour>
    <contour>
      <point x="-815.0" y="1400.0" type="curve" smooth="yes"/>
      <point x="-815.0" y="1260.0"/>
      <point x="-710.0" y="1160.0"/>
      <point x="-570.0" y="1160.0" type="curve" smooth="yes"/>
      <point x="-430.0" y="1160.0"/>
      <point x="-325.0" y="1260.0"/>
      <point x="-325.0" y="1400.0" type="curve" smooth="yes"/>
      <point x="-325.0" y="1540.0"/>
      <point x="-430.0" y="1640.0"/>
      <point x="-570.0" y="1640.0" type="curve" smooth="yes"/>
      <point x="-710.0" y="1640.0"/>
      <point x="-815.0" y="1540.0"/>
    </contour>
  </outline>
</glyph>
<glyph name="Hyphen" format="2">
  <advance width="880.0"/>
  <unicode hex="2010"/>
  <anchor x="440.0" y="1100.0" name="U"/>
  <outline>
    <contour>
      <point x="70.0" y="525.0" type="line"/>
      <point x="810.0" y="525.0" type="line"/>
      <point x="810.0" y="735.0" type="line"/>
      <point x="70.0" y="735.0" type="line"/>
    </contour>
  </outline>
</glyph>
<glyph name="DottedCirc" format="2">
  <advance width="1106.0"/>
  <unicode hex="25CC"/>
  <anchor x="553.0" y="0.0" name="H"/>
  <anchor x="553.0" y="-100.0" name="L"/>
  <anchor x="810.0" y="0.0" name="O"/>
  <anchor x="553.0" y="1000.0" name="U"/>
  <outline>
    <contour>
      <point x="443.0" y="837.0" type="curve" smooth="yes"/>
      <point x="443.0" y="864.0"/>
      <point x="423.0" y="885.0"/>
      <point x="398.0" y="885.0" type="curve" smooth="yes"/>
      <point x="371.0" y="885.0"/>
      <point x="348.0" y="861.0"/>
      <point x="348.0" y="837.0" type="curve" smooth="yes"/>
      <point x="348.0" y="809.0"/>
      <point x="372.0" y="789.0"/>
      <point x="398.0" y="789.0" type="curve" smooth="yes"/>
      <point x="425.0" y="789.0"/>
      <point x="443.0" y="812.0"/>
    </contour>
    <contour>
      <point x="758.0" y="79.0" type="curve" smooth="yes"/>
      <point x="758.0" y="106.0"/>
      <point x="736.0" y="127.0"/>
      <point x="710.0" y="127.0" type="curve" smooth="yes"/>
      <point x="685.0" y="127.0"/>
      <point x="662.0" y="103.0"/>
      <point x="662.0" y="80.0" type="curve" smooth="yes"/>
      <point x="662.0" y="52.0"/>
      <point x="686.0" y="31.0"/>
      <point x="710.0" y="31.0" type="curve" smooth="yes"/>
      <point x="737.0" y="31.0"/>
      <point x="758.0" y="55.0"/>
    </contour>
    <contour>
      <point x="310.0" y="749.0" type="curve" smooth="yes"/>
      <point x="310.0" y="775.0"/>
      <point x="288.0" y="796.0"/>
      <point x="263.0" y="796.0" type="curve" smooth="yes"/>
      <point x="238.0" y="796.0"/>
      <point x="215.0" y="774.0"/>
      <point x="215.0" y="747.0" type="curve" smooth="yes"/>
      <point x="215.0" y="722.0"/>
      <point x="236.0" y="701.0"/>
      <point x="263.0" y="701.0" type="curve" smooth="yes"/>
      <point x="291.0" y="701.0"/>
      <point x="310.0" y="720.0"/>
    </contour>
    <contour>
      <point x="891.0" y="168.0" type="curve" smooth="yes"/>
      <point x="891.0" y="197.0"/>
      <point x="870.0" y="215.0"/>
      <point x="843.0" y="215.0" type="curve" smooth="yes"/>
      <point x="817.0" y="215.0"/>
      <point x="795.0" y="194.0"/>
      <point x="795.0" y="168.0" type="curve" smooth="yes"/>
      <point x="795.0" y="143.0"/>
      <point x="816.0" y="121.0"/>
      <point x="843.0" y="121.0" type="curve" smooth="yes"/>
      <point x="871.0" y="121.0"/>
      <point x="891.0" y="143.0"/>
    </contour>
    <contour>
      <point x="222.0" y="613.0" type="curve" smooth="yes"/>
      <point x="222.0" y="640.0"/>
      <point x="199.0" y="663.0"/>
      <point x="173.0" y="663.0" type="curve" smooth="yes"/>
      <point x="149.0" y="663.0"/>
      <point x="126.0" y="642.0"/>
      <point x="126.0" y="615.0" type="curve" smooth="yes"/>
      <point x="126.0" y="591.0"/>
      <point x="145.0" y="567.0"/>
      <point x="173.0" y="567.0" type="curve" smooth="yes"/>
      <point x="197.0" y="567.0"/>
      <point x="222.0" y="587.0"/>
    </contour>
    <contour>
      <point x="980.0" y="301.0" type="curve" smooth="yes"/>
      <point x="980.0" y="327.0"/>
      <point x="957.0" y="348.0"/>
      <point x="932.0" y="348.0" type="curve" smooth="yes"/>
      <point x="908.0" y="348.0"/>
      <point x="884.0" y="332.0"/>
      <point x="884.0" y="301.0" type="curve" smooth="yes"/>
      <point x="884.0" y="277.0"/>
      <point x="902.0" y="254.0"/>
      <point x="932.0" y="254.0" type="curve" smooth="yes"/>
      <point x="957.0" y="254.0"/>
      <point x="980.0" y="274.0"/>
    </contour>
    <contour>
      <point x="191.0" y="459.0" type="curve" smooth="yes"/>
      <point x="191.0" y="484.0"/>
      <point x="168.0" y="505.0"/>
      <point x="143.0" y="505.0" type="curve" smooth="yes"/>
      <point x="116.0" y="505.0"/>
      <point x="95.0" y="484.0"/>
      <point x="95.0" y="458.0" type="curve" smooth="yes"/>
      <point x="95.0" y="433.0"/>
      <point x="115.0" y="410.0"/>
      <point x="143.0" y="410.0" type="curve" smooth="yes"/>
      <point x="167.0" y="410.0"/>
      <point x="191.0" y="432.0"/>
    </contour>
    <contour>
      <point x="1011.0" y="458.0" type="curve" smooth="yes"/>
      <point x="1011.0" y="484.0"/>
      <point x="990.0" y="506.0"/>
      <point x="964.0" y="506.0" type="curve" smooth="yes"/>
      <point x="940.0" y="506.0"/>
      <point x="915.0" y="484.0"/>
      <point x="915.0" y="457.0" type="curve" smooth="yes"/>
      <point x="915.0" y="433.0"/>
      <point x="936.0" y="411.0"/>
      <point x="964.0" y="411.0" type="curve" smooth="yes"/>
      <point x="990.0" y="411.0"/>
      <point x="1011.0" y="433.0"/>
    </contour>
    <contour>
      <point x="222.0" y="302.0" type="curve" smooth="yes"/>
      <point x="222.0" y="328.0"/>
      <point x="200.0" y="348.0"/>
      <point x="174.0" y="348.0" type="curve" smooth="yes"/>
      <point x="147.0" y="348.0"/>
      <point x="126.0" y="326.0"/>
      <point x="126.0" y="302.0" type="curve" smooth="yes"/>
      <point x="126.0" y="275.0"/>
      <point x="149.0" y="253.0"/>
      <point x="174.0" y="253.0" type="curve" smooth="yes"/>
      <point x="201.0" y="253.0"/>
      <point x="222.0" y="277.0"/>
    </contour>
    <contour>
      <point x="980.0" y="615.0" type="curve" smooth="yes"/>
      <point x="980.0" y="642.0"/>
      <point x="955.0" y="663.0"/>
      <point x="931.0" y="663.0" type="curve" smooth="yes"/>
      <point x="904.0" y="663.0"/>
      <point x="885.0" y="638.0"/>
      <point x="885.0" y="614.0" type="curve" smooth="yes"/>
      <point x="885.0" y="588.0"/>
      <point x="907.0" y="567.0"/>
      <point x="931.0" y="567.0" type="curve" smooth="yes"/>
      <point x="959.0" y="567.0"/>
      <point x="980.0" y="591.0"/>
    </contour>
    <contour>
      <point x="310.0" y="168.0" type="curve" smooth="yes"/>
      <point x="310.0" y="195.0"/>
      <point x="291.0" y="215.0"/>
      <point x="263.0" y="215.0" type="curve" smooth="yes"/>
      <point x="238.0" y="215.0"/>
      <point x="215.0" y="190.0"/>
      <point x="215.0" y="168.0" type="curve" smooth="yes"/>
      <point x="215.0" y="143.0"/>
      <point x="238.0" y="120.0"/>
      <point x="263.0" y="120.0" type="curve" smooth="yes"/>
      <point x="289.0" y="120.0"/>
      <point x="310.0" y="143.0"/>
    </contour>
    <contour>
      <point x="890.0" y="748.0" type="curve" smooth="yes"/>
      <point x="890.0" y="774.0"/>
      <point x="870.0" y="796.0"/>
      <point x="843.0" y="796.0" type="curve" smooth="yes"/>
      <point x="815.0" y="796.0"/>
      <point x="796.0" y="773.0"/>
      <point x="796.0" y="748.0" type="curve" smooth="yes"/>
      <point x="796.0" y="724.0"/>
      <point x="817.0" y="700.0"/>
      <point x="843.0" y="700.0" type="curve" smooth="yes"/>
      <point x="869.0" y="700.0"/>
      <point x="890.0" y="722.0"/>
    </contour>
    <contour>
      <point x="444.0" y="78.0" type="curve" smooth="yes"/>
      <point x="444.0" y="102.0"/>
      <point x="423.0" y="126.0"/>
      <point x="396.0" y="126.0" type="curve" smooth="yes"/>
      <point x="370.0" y="126.0"/>
      <point x="348.0" y="102.0"/>
      <point x="348.0" y="78.0" type="curve" smooth="yes"/>
      <point x="348.0" y="55.0"/>
      <point x="370.0" y="31.0"/>
      <point x="396.0" y="31.0" type="curve" smooth="yes"/>
      <point x="420.0" y="31.0"/>
      <point x="444.0" y="51.0"/>
    </contour>
    <contour>
      <point x="758.0" y="836.0" type="curve" smooth="yes"/>
      <point x="758.0" y="861.0"/>
      <point x="737.0" y="885.0"/>
      <point x="710.0" y="885.0" type="curve" smooth="yes"/>
      <point x="684.0" y="885.0"/>
      <point x="663.0" y="862.0"/>
      <point x="663.0" y="838.0" type="curve" smooth="yes"/>
      <point x="663.0" y="814.0"/>
      <point x="683.0" y="789.0"/>
      <point x="710.0" y="789.0" type="curve" smooth="yes"/>
      <point x="734.0" y="789.0"/>
      <point x="758.0" y="809.0"/>
    </contour>
    <contour>
      <point x="601.0" y="47.0" type="curve" smooth="yes"/>
      <point x="601.0" y="73.0"/>
      <point x="579.0" y="95.0"/>
      <point x="553.0" y="95.0" type="curve" smooth="yes"/>
      <point x="527.0" y="95.0"/>
      <point x="506.0" y="73.0"/>
      <point x="506.0" y="47.0" type="curve" smooth="yes"/>
      <point x="506.0" y="21.0"/>
      <point x="527.0" y="0.0"/>
      <point x="553.0" y="0.0" type="curve" smooth="yes"/>
      <point x="579.0" y="0.0"/>
      <point x="601.0" y="21.0"/>
    </contour>
    <contour>
      <point x="601.0" y="868.0" type="curve" smooth="yes"/>
      <point x="601.0" y="894.0"/>
      <point x="579.0" y="916.0"/>
      <point x="553.0" y="916.0" type="curve" smooth="yes"/>
      <point x="527.0" y="916.0"/>
      <point x="506.0" y="894.0"/>
      <point x="506.0" y="868.0" type="curve" smooth="yes"/>
      <point x="506.0" y="842.0"/>
      <point x="527.0" y="821.0"/>
      <point x="553.0" y="821.0" type="curve" smooth="yes"/>
      <point x="579.0" y="821.0"/>
      <point x="601.0" y="842.0"/>
    </contour>
  </outline>
</glyph>
